SplineFontDB: 3.0
FontName: BoonTone-Bold
FullName: Boon Tone Bold
FamilyName: BoonTone
Weight: Bold
Copyright: Copyright (C) 2013 Sungsit Sawaiwan <http://sungsit.com/> \n\nThis font is free software: you can redistribute it and/or modify it under the terms of the GNU General Public License as published by the Free Software Foundation, either version 3 of the License, or (at your option) any later version. \n\nThis font is distributed in the hope that it will be useful, but WITHOUT ANY WARRANTY; without even the implied warranty of MERCHANTABILITY or FITNESS FOR A PARTICULAR PURPOSE. See the GNU General Public License for more details. \n\nYou should have received a copy of the GNU General Public License along with this program. If not, see <http://www.gnu.org/licenses/>. \n\nAs a special exception, if you create a document which uses this font, and embed this font or unaltered portions of this font into the document, this font does not by itself cause the resulting document to be covered by the GNU General Public License. This exception does not however invalidate any other reasons why the document might be covered by the GNU General Public License. If you modify this font, you may extend this exception to your version of the font, but you are not obligated to do so. If you do not wish to do so, delete this exception statement from your version.
UComments: "Created with FontForge 2.0 <http://fontforge.org/>" 
Version: 0.1
ItalicAngle: 0
UnderlinePosition: -60
UnderlineWidth: 20
Ascent: 860
Descent: 340
woffMajor: 0
woffMinor: 1
LayerCount: 2
Layer: 0 0 "Back"  1
Layer: 1 0 "Fore"  0
FSType: 8
OS2Version: 0
OS2_WeightWidthSlopeOnly: 0
OS2_UseTypoMetrics: 1
CreationTime: 1372949805
ModificationTime: 1373114512
PfmFamily: 33
TTFWeight: 700
TTFWidth: 5
LineGap: 108
VLineGap: 0
Panose: 2 0 8 3 0 0 0 0 0 0
OS2TypoAscent: 0
OS2TypoAOffset: 1
OS2TypoDescent: 0
OS2TypoDOffset: 1
OS2TypoLinegap: 108
OS2WinAscent: 0
OS2WinAOffset: 1
OS2WinDescent: 0
OS2WinDOffset: 1

StartChar: uni0E04
Encoding: 3588 3588 0
Width: 700
VWidth: 0
Flags: W
HStem: 0 21G<60 220 480 640> 220 100<220 390> 488 130<263.239 436.761>
VStem: 60 160<0 220 320 440.758> 480 160<0 440.758>
LayerCount: 2
Fore
SplineSet
640 0 m 5
 480 0 l 5
 480 350 l 6
 480 454 421 488 350 488 c 4
 279 488 220 454 220 350 c 6
 220 320 l 5
 390 320 l 5
 390 220 l 5
 220 220 l 5
 220 0 l 5
 60 0 l 5
 60 380 l 6
 60 556 223 618 350 618 c 4
 477 618 640 556 640 380 c 6
 640 0 l 5
EndSplineSet
EndChar

StartChar: uni0E05
Encoding: 3589 3589 2
Width: 720
VWidth: 0
Flags: W
HStem: 0 21G<60 220 500 660> 220 100<220 390> 598 20G<208 282.472 437.528 512>
VStem: 60 160<0 220 320 474.033> 500 160<0 474.033>
LayerCount: 2
Fore
SplineSet
260 618 m 1
 360 529 l 1
 460 618 l 1
 564 618 660 530 660 390 c 2
 660 0 l 1
 500 0 l 1
 500 360 l 2
 500 416 497 469 460 488 c 1
 360 409 l 1
 260 488 l 1
 223 469 220 416 220 360 c 2
 220 320 l 1
 390 320 l 1
 390 220 l 1
 220 220 l 1
 220 0 l 1
 60 0 l 1
 60 390 l 2
 60 530 156 618 260 618 c 1
EndSplineSet
EndChar

StartChar: uni0E14
Encoding: 3604 3604 3
Width: 748
VWidth: 0
Flags: W
HStem: -18 130<281.71 439.972> 0 21G<528 688> 488 130<274.927 456.74>
VStem: 42 150<203.6 402.069> 528 160<0 415.739>
LayerCount: 2
Fore
SplineSet
360 618 m 4xb8
 564 618 688 485 688 320 c 6
 688 0 l 5
 528 0 l 5x78
 528 0 528 213 528 320 c 4
 528 435 449 488 360 488 c 4
 267 488 192 414 192 300 c 4
 192 186 277 112 370 112 c 4xb8
 401 112 440 125 440 125 c 5
 440 0 l 5x78
 440 0 401 -18 350 -18 c 4
 164 -18 42 124 42 300 c 4
 42 476 174 618 360 618 c 4xb8
EndSplineSet
EndChar

StartChar: uni0E15
Encoding: 3605 3605 4
Width: 748
VWidth: 0
Flags: W
HStem: -18 130<281.71 439.972> 0 21G<528 688> 479 130<262.3 350> 580 20G<505.067 688>
VStem: 42 150<203.6 403.954> 528 160<0 470>
LayerCount: 2
Back
SplineSet
360 618 m 5xac
 528 500 l 5
 578 600 l 5
 688 600 l 5
 688 0 l 5
 528 0 l 5x5c
 528 378 l 5
 360 488 l 5
 267 488 192 414 192 300 c 4
 192 186 277 112 370 112 c 4xac
 401 112 440 125 440 125 c 5
 440 0 l 5x4c
 440 0 401 -18 350 -18 c 4
 164 -18 42 124 42 300 c 4
 42 476 174 618 360 618 c 5xac
EndSplineSet
Fore
SplineSet
350 609 m 5xac
 442 525 l 5
 528 600 l 5
 688 600 l 5
 688 0 l 5
 528 0 l 5x5c
 528 470 l 5
 442 400 l 5
 350 479 l 5
 257 479 192 414 192 300 c 4
 192 186 277 112 370 112 c 4xac
 401 112 440 125 440 125 c 5
 440 0 l 5x4c
 440 0 401 -18 350 -18 c 4
 164 -18 42 124 42 300 c 4
 42 476 164 609 350 609 c 5xac
EndSplineSet
EndChar

StartChar: uni0E01
Encoding: 3585 3585 5
Width: 700
VWidth: 0
Flags: W
HStem: 0 21G<60 220 480 640> 488 130<222.777 436.761>
VStem: 60 160<0 473.344> 480 160<0 440.758>
LayerCount: 2
Fore
SplineSet
350 618 m 4
 477 618 640 556 640 380 c 6
 640 0 l 5
 480 0 l 5
 480 350 l 6
 480 454 421 488 350 488 c 4
 249 488 220 460 220 460 c 5
 220 0 l 5
 60 0 l 5
 60 520 l 5
 60 520 157 618 350 618 c 4
EndSplineSet
EndChar

StartChar: uni0E16
Encoding: 3606 3606 6
Width: 700
VWidth: 0
Flags: W
HStem: -18 21G<266.768 295.797> 0 21G<480 640> 488 130<222.777 436.761>
VStem: 60 160<163.771 473.344> 480 160<0 440.758>
LayerCount: 2
Fore
SplineSet
350 618 m 0xb8
 477 618 640 556 640 380 c 2
 640 0 l 1
 480 0 l 1x78
 480 350 l 2
 480 454 421 488 350 488 c 0
 249 488 220 460 220 460 c 1
 220 460 220 350 220 230 c 0
 220 134 330 120 330 120 c 1
 290 -18 l 5
 290 -18 60 2 60 180 c 0
 60 320 60 520 60 520 c 1
 60 520 157 618 350 618 c 0xb8
EndSplineSet
EndChar

StartChar: uni0E28
Encoding: 3624 3624 7
Width: 720
VWidth: 0
Flags: W
HStem: 0 21G<60 220 480 640> 220 100<220 390> 488 130<263.239 436.191>
VStem: 60 160<0 220 320 440.758> 480 160<0 443.801>
LayerCount: 2
Fore
SplineSet
605 670 m 1
 700 560 l 1
 613 491 l 1
 630 460 640 424 640 380 c 2
 640 0 l 1
 480 0 l 1
 480 350 l 2
 480 454 421 488 350 488 c 0
 279 488 220 454 220 350 c 2
 220 320 l 1
 390 320 l 1
 390 220 l 1
 220 220 l 1
 220 0 l 1
 60 0 l 1
 60 380 l 2
 60 556 223 618 350 618 c 0
 400 618 456 608 505 586 c 1
 605 670 l 1
EndSplineSet
EndChar

StartChar: uni0E20
Encoding: 3616 3616 8
Width: 700
VWidth: 0
Flags: W
HStem: -18 21G<44.2029 100.45> 0 21G<480 640> 488 130<254.892 443.641>
VStem: 90 160<141.109 471.389> 480 160<0 447.631>
LayerCount: 2
Fore
SplineSet
365 618 m 4xb8
 492 618 640 556 640 380 c 6
 640 0 l 5
 480 0 l 5x78
 480 350 l 6
 480 454 432 488 365 488 c 4
 298 488 250 460 250 460 c 5
 250 180 l 6
 250 2 150.9 -18 50 -18 c 5
 10 120 l 5
 58.6914 120 90 134 90 230 c 6
 90 520 l 5
 90 520 178 618 365 618 c 4xb8
EndSplineSet
EndChar

StartChar: uni0E48
Encoding: 3656 3656 9
Width: 0
VWidth: 0
Flags: W
HStem: 980 220<-240 -120>
VStem: -240 120<980 1200>
LayerCount: 2
Fore
SplineSet
-240 1200 m 5
 -120 1200 l 5
 -120 980 l 5
 -240 980 l 5
 -240 1200 l 5
EndSplineSet
Position2: "Nikhahit & Tone High-Left" dx=-180 dy=0 dh=0 dv=0
Position2: "Mai Han-Akat & Tone High-Left" dx=-220 dy=0 dh=0 dv=0
Position2: "Tone High-Left" dx=-140 dy=0 dh=0 dv=0
MultipleSubs2: "Tone High-Low" uni0E48.low
EndChar

StartChar: uni0E34
Encoding: 3636 3636 10
Width: 0
VWidth: 0
Flags: W
HStem: 710 120<-540 -120>
LayerCount: 2
Fore
SplineSet
-540 830 m 5
 -120 830 l 1
 -120 710 l 1
 -570 710 l 1
 -540 830 l 5
EndSplineSet
Position2: "Vowel Above-Left" dx=-140 dy=0 dh=0 dv=0
EndChar

StartChar: uni0E38
Encoding: 3640 3640 11
Width: 0
VWidth: 0
Flags: W
HStem: -340 280
VStem: -240 150<-340 -159.608>
LayerCount: 2
Fore
SplineSet
-280 -150 m 1
 -170 -60 l 1
 -170 -60 -90 -95 -90 -210 c 2
 -90 -340 l 1
 -240 -340 l 1
 -240 -210 l 2
 -240 -169 -280 -150 -280 -150 c 1
EndSplineSet
Position2: "Vowel Below-Low" dx=0 dy=-200 dh=0 dv=0
EndChar

StartChar: uni0E35
Encoding: 3637 3637 12
Width: 0
VWidth: 0
Flags: W
HStem: 710 210<-240 -120> 710 110<-550 -240>
VStem: -240 120<820 920>
LayerCount: 2
Fore
SplineSet
-550 820 m 5x60
 -240 820 l 5x60
 -240 920 l 5
 -120 920 l 5
 -120 710 l 5xa0
 -590 710 l 5
 -550 820 l 5x60
EndSplineSet
Position2: "Vowel Above-Left" dx=-140 dy=0 dh=0 dv=0
EndChar

StartChar: uni0E48.low
Encoding: 63237 63237 13
Width: 0
VWidth: 0
Flags: W
HStem: 700 230<-220 -100>
VStem: -220 120<700 930>
LayerCount: 2
Fore
SplineSet
-220 930 m 5
 -100 930 l 5
 -100 700 l 1
 -220 700 l 1
 -220 930 l 5
EndSplineSet
Position2: "Tone Low-Left" dx=-160 dy=0 dh=0 dv=0
Substitution2: "Tone Low-High" uni0E48
EndChar

StartChar: uni0E4B.low
Encoding: 63240 63240 16
Width: 0
VWidth: 0
Flags: W
HStem: 775 70<-300 -205 -95 0>
VStem: -205 110<690 775 845 930>
LayerCount: 2
Fore
SplineSet
-205 930 m 5
 -95 930 l 5
 -95 845 l 5
 0 845 l 5
 0 775 l 5
 -95 775 l 5
 -95 690 l 5
 -205 690 l 5
 -205 775 l 5
 -300 775 l 5
 -300 845 l 5
 -205 845 l 5
 -205 930 l 5
EndSplineSet
Position2: "Tone Low-Left" dx=-210 dy=0 dh=0 dv=0
Substitution2: "Tone Low-High" uni0E4B
EndChar

StartChar: uni0E4C.low
Encoding: 63241 63241 17
Width: 0
VWidth: 0
Flags: W
HStem: 690 65<-234.783 -167.73>
VStem: -300 64<757.184 822.099> -166 66<756.964 823.668> -160 120<935.348 990>
LayerCount: 2
Fore
SplineSet
-160 990 m 5xd0
 -40 990 l 5xd0
 -40 925 -76 876 -122 852 c 5
 -110 835 -100 813 -100 790 c 4xe0
 -100 735 -146 690 -200 690 c 4
 -256 690 -300 735 -300 790 c 4
 -300 892 -160 907 -160 990 c 5xd0
-200 825 m 4
 -220 825 -236 809 -236 790 c 4
 -236 771 -220 755 -200 755 c 4
 -181 755 -166 771 -166 790 c 4xe0
 -166 809 -181 825 -200 825 c 4
EndSplineSet
Position2: "Tone Low-Left" dx=-120 dy=0 dh=0 dv=0
Substitution2: "Tone Low-High" uni0E4C
EndChar

StartChar: uni0E10.descless
Encoding: 63232 63232 18
Width: 650
VWidth: 0
Flags: W
HStem: -18 21G<289.808 404.5> 508 110<233.42 433.718>
VStem: 410 160<80 310.622>
LayerCount: 2
Back
SplineSet
310 618 m 4
 463 618 580 526 580 420 c 5
 450 420 l 5
 450 475 386 508 310 508 c 4
 242 508 170 478 170 440 c 4
 170 398 217.495 390.812 310 380 c 4
 464 362 540 343 540 210 c 6
 540 60 l 5
 540 60 477 -18 320 -18 c 5
 80 220 l 5
 250 220 l 5
 390 80 l 5
 390 210 l 6
 390 252 371 294 290 300 c 4
 200.969 306.595 50 316 50 440 c 4
 50 524 157 618 310 618 c 4
EndSplineSet
Fore
SplineSet
330 618 m 4
 503 618 610 493 610 430 c 5
 470 430 l 5
 470 461 426 508 330 508 c 4
 241 508 197 460 190 420 c 5
 421 402 570 394 570 270 c 6
 570 60 l 5
 570 60 499 -18 310 -18 c 5
 100 190 l 5
 210 280 l 5
 410 80 l 5
 410 290 l 6
 410 340 40 350 40 350 c 5
 40 512 177 618 330 618 c 4
EndSplineSet
EndChar

StartChar: uni0E0D.descless
Encoding: 63247 63247 19
Width: 1000
VWidth: 0
Flags: W
HStem: -18 130<652.447 761.833> 488 130<223.893 427.235> 580 20G<780 940>
VStem: 60 160<163.771 474> 470 160<132.814 440.758> 780 160<131.612 600>
LayerCount: 2
Fore
SplineSet
345 618 m 0xdc
 472 618 630 556 630 380 c 2
 630 200 l 2
 630 149 662 112 705 112 c 0
 750 112 780 142 780 200 c 2
 780 600 l 1
 940 600 l 1xbc
 940 200 l 2
 940 96 868 -18 705 -18 c 0
 542 -18 470 99 470 200 c 2
 470 350 l 2
 470 454 416 488 345 488 c 0
 244 488 220 460 220 460 c 1
 220 230 l 2
 220 134 330 120 330 120 c 1
 290 -18 l 1
 290 -18 60 2 60 180 c 2
 60 520 l 1
 60 520 152 618 345 618 c 0xdc
EndSplineSet
EndChar

StartChar: uni0E36
Encoding: 3638 3638 20
Width: 0
VWidth: 0
Flags: W
HStem: 710 120<-580 -334.637> 710 70<-267.563 -194.624> 860 70<-266.66 -193.531>
VStem: -190 70<783.531 856.469>
LayerCount: 2
Fore
SplineSet
-230 930 m 0xb0
 -169 930 -120 881 -120 820 c 0
 -120 759 -169 710 -230 710 c 2
 -620 710 l 1x70
 -580 830 l 1
 -340 830 l 1
 -335 886 -287 930 -230 930 c 0xb0
-230 860 m 0
 -252 860 -270 842 -270 820 c 0
 -270 798 -252 780 -230 780 c 0
 -208 780 -190 798 -190 820 c 0
 -190 842 -208 860 -230 860 c 0
EndSplineSet
Position2: "Vowel Above-Left" dx=-140 dy=0 dh=0 dv=0
EndChar

StartChar: uni0E37
Encoding: 3639 3639 21
Width: 0
VWidth: 0
Flags: W
HStem: 710 210<-400 -290 -230 -120> 710 110<-550 -400 -290 -230>
VStem: -400 110<820 920> -230 110<820 920>
LayerCount: 2
Fore
SplineSet
-400 920 m 5xb0
 -290 920 l 5xb0
 -290 820 l 5
 -230 820 l 5x70
 -230 920 l 5
 -120 920 l 5
 -120 710 l 5xb0
 -590 710 l 5
 -550 820 l 5
 -400 820 l 5x70
 -400 920 l 5xb0
EndSplineSet
Position2: "Vowel Above-Left" dx=-140 dy=0 dh=0 dv=0
EndChar

StartChar: uni0E2D
Encoding: 3629 3629 22
Width: 720
VWidth: 0
Flags: W
HStem: -18 130<271.113 441.659> 220 100<208 302> 488 130<269.231 441.659>
VStem: 528 150<203.869 396.131>
LayerCount: 2
Fore
SplineSet
360 618 m 0
 536 618 678 476 678 300 c 0
 678 124 536 -18 360 -18 c 0
 184 -18 42 124 42 300 c 2
 42 320 l 1
 302 320 l 5
 302 220 l 1
 208 220 l 1
 226 156 283 112 360 112 c 0
 453 112 528 196 528 300 c 0
 528 404 453 488 360 488 c 0
 290 488 239 453 218 400 c 1
 58 400 l 1
 90 527 219 618 360 618 c 0
EndSplineSet
EndChar

StartChar: uni0E4D
Encoding: 3661 3661 23
Width: 0
VWidth: 0
Flags: W
HStem: 660 85<-298.756 -211.244> 845 85<-298.756 -211.244>
VStem: -390 85<751.244 838.756> -205 85<751.244 838.756>
LayerCount: 2
Fore
SplineSet
-255 930 m 0
 -180 930 -120 870 -120 795 c 0
 -120 720 -180 660 -255 660 c 0
 -330 660 -390 720 -390 795 c 0
 -390 870 -330 930 -255 930 c 0
-255 845 m 0
 -283 845 -305 823 -305 795 c 0
 -305 767 -283 745 -255 745 c 0
 -227 745 -205 767 -205 795 c 0
 -205 823 -227 845 -255 845 c 0
EndSplineSet
Position2: "Vowel Above-Left" dx=-180 dy=0 dh=0 dv=0
EndChar

StartChar: uni0E32
Encoding: 3634 3634 25
Width: 560
VWidth: 0
Flags: W
HStem: 0 21G<340 500> 482 130<202.823 317.659>
VStem: 340 160<0 461.153>
LayerCount: 2
Fore
SplineSet
340 0 m 5
 340 368 l 6
 340 456 305 482 260 482 c 4
 217 482 185 451 185 400 c 5
 20 400 l 5
 20 501 97 612 260 612 c 4
 423 612 500 499 500 368 c 6
 500 0 l 5
 340 0 l 5
EndSplineSet
Substitution2: "Sara AA Substitute" uni0E45
EndChar

StartChar: uni0E25
Encoding: 3621 3621 26
Width: 680
VWidth: 0
Flags: W
HStem: -18 120<245.56 340> 0 21G<470 620> 498 120<259.299 444.664>
VStem: 50 160<134.681 224.643> 470 150<0 275 383.359 469.395>
LayerCount: 2
Fore
SplineSet
350 618 m 0xb8
 503 618 620 524 620 430 c 2
 620 0 l 1
 470 0 l 1x78
 470 275 l 1
 430 263 390 257 360 255 c 0
 286 249 210 238 210 180 c 0
 210 129 278 102 340 102 c 1
 340 -18 l 1
 193 -18 50 38 50 180 c 0
 50 323 237 354 340 360 c 0
 433 365 470 388 470 430 c 0
 470 468 418 498 350 498 c 0
 274 498 230 465 230 410 c 1
 70 410 l 1
 70 530 197 618 350 618 c 0xb8
EndSplineSet
EndChar

StartChar: uni0E40
Encoding: 3648 3648 27
Width: 300
VWidth: 0
Flags: W
HStem: 0 21G<70 230> 580 20G<70 230>
VStem: 70 160<0 600>
LayerCount: 2
Fore
SplineSet
70 600 m 5
 230 600 l 5
 230 0 l 5
 70 0 l 5
 70 600 l 5
EndSplineSet
EndChar

StartChar: uni0E2A
Encoding: 3626 3626 29
Width: 710
VWidth: 0
Flags: W
HStem: -18 120<245.56 340> 0 21G<470 620> 498 120<259.299 445.262>
VStem: 50 160<134.681 224.643> 470 150<0 275 383.359 472.17>
LayerCount: 2
Fore
SplineSet
595 670 m 5xb8
 690 560 l 1
 604 491 l 1
 614 472 620 451 620 430 c 2
 620 0 l 1
 470 0 l 1x78
 470 275 l 1
 430 263 390 257 360 255 c 0
 286 249 210 238 210 180 c 0
 210 129 278 102 340 102 c 1
 340 -18 l 1
 193 -18 50 38 50 180 c 0
 50 323 237 354 340 360 c 0
 433 365 470 388 470 430 c 0
 470 468 418 498 350 498 c 0
 274 498 230 465 230 410 c 1
 70 410 l 1
 70 530 197 618 350 618 c 0
 404 618 454 606 496 587 c 1
 595 670 l 5xb8
EndSplineSet
EndChar

StartChar: uni0E1D
Encoding: 3613 3613 31
Width: 792
VWidth: 0
Flags: W
HStem: 489 120<273.291 419.995> 840 20G<572 732>
VStem: 42 150<196.74 401.724> 572 160<130 860>
LayerCount: 2
Fore
SplineSet
340 609 m 0
 413 609 420 591 420 591 c 1
 420 476 l 1
 420 476 415 489 360 489 c 0
 267 489 192 414 192 300 c 0
 192 214 227 169 272 145 c 5
 362 340 l 1
 477 340 l 1
 572 130 l 1
 572 860 l 1
 732 860 l 1
 732 60 l 1
 732 60 645 -9 517 -9 c 1
 422 200 l 1
 332 -9 l 1
 156 -9 42 124 42 300 c 0
 42 476 154 609 340 609 c 0
EndSplineSet
EndChar

StartChar: uni0E1A
Encoding: 3610 3610 32
Width: 700
VWidth: 0
Flags: W
HStem: -18 130<263.239 436.761> 580 20G<60 220 480 640>
VStem: 60 160<159.242 600> 480 160<159.242 600>
LayerCount: 2
Fore
SplineSet
60 600 m 5
 220 600 l 5
 220 250 l 6
 220 146 279 112 350 112 c 4
 421 112 480 146 480 250 c 6
 480 600 l 5
 640 600 l 5
 640 220 l 6
 640 44 477 -18 350 -18 c 4
 223 -18 60 44 60 220 c 6
 60 600 l 5
EndSplineSet
EndChar

StartChar: uni0E1B
Encoding: 3611 3611 33
Width: 700
VWidth: 0
Flags: W
HStem: -18 130<263.239 436.761> 580 20G<60 220> 840 20G<480 640>
VStem: 60 160<159.242 600> 480 160<159.242 860>
LayerCount: 2
Fore
SplineSet
60 600 m 1
 220 600 l 1
 220 250 l 2
 220 146 279 112 350 112 c 0
 421 112 480 146 480 250 c 2
 480 860 l 5
 640 860 l 5
 640 220 l 2
 640 44 477 -18 350 -18 c 0
 223 -18 60 44 60 220 c 2
 60 600 l 1
EndSplineSet
EndChar

StartChar: uni0E49
Encoding: 3657 3657 34
Width: 0
VWidth: 0
Flags: W
HStem: 970 95<-255 -163.944> 970 85<-410 -355>
VStem: -355 100<1065 1120.16> -130 130<1101.12 1160>
LayerCount: 2
Fore
SplineSet
-315 1200 m 1x70
 -315 1200 -255 1180 -255 1065 c 1
 -225 1065 l 2
 -171 1065 -144 1107 -130 1160 c 5
 0 1160 l 1
 -32 1033 -109 970 -225 970 c 2xb0
 -440 970 l 1
 -410 1055 l 1
 -355 1055 l 1
 -355 1096 -395 1140 -395 1140 c 1
 -315 1200 l 1x70
EndSplineSet
Position2: "Nikhahit & Tone High-Left" dx=-150 dy=0 dh=0 dv=0
Position2: "Mai Han-Akat & Tone High-Left" dx=-180 dy=0 dh=0 dv=0
Position2: "Tone High-Left" dx=-120 dy=0 dh=0 dv=0
MultipleSubs2: "Tone High-Low" uni0E49.low
EndChar

StartChar: uni0E1C
Encoding: 3612 3612 35
Width: 792
VWidth: 0
Flags: W
HStem: 489 120<273.291 419.995> 580 20G<572 732>
VStem: 42 150<196.74 401.724> 572 160<130 600>
LayerCount: 2
Back
SplineSet
340 609 m 4
 413 609 430 591 430 591 c 5
 430 476 l 5
 430 476 415 489 360 489 c 4
 267 489 202 414 202 300 c 4
 202 214 227 159 282 135 c 5
 387 340 l 5
 467 340 l 5
 562 130 l 5
 642 600 l 5
 792 600 l 5
 682 0 l 5
 522 0 l 5
 427 200 l 5
 322 -9 l 5
 146 -9 42 124 42 300 c 4
 42 476 154 609 340 609 c 4
EndSplineSet
Fore
SplineSet
340 609 m 0xb0
 413 609 420 591 420 591 c 1
 420 476 l 1
 420 476 415 489 360 489 c 0xb0
 267 489 192 414 192 300 c 0
 192 214 227 169 272 145 c 5
 362 340 l 1
 477 340 l 1
 572 130 l 1
 572 600 l 1
 732 600 l 1x70
 732 60 l 1
 732 60 645 -9 517 -9 c 1
 422 200 l 1
 332 -9 l 1
 156 -9 42 124 42 300 c 0
 42 476 154 609 340 609 c 0xb0
EndSplineSet
EndChar

StartChar: uni0E1F
Encoding: 3615 3615 37
Width: 860
VWidth: 0
Flags: W
HStem: 0 21G<165 349.857 500.714 713.023> 580 20G<20 194.286 370.476 489.524> 840 20G<677.059 840>
LayerCount: 2
Fore
SplineSet
20 600 m 1
 190 600 l 1
 280 180 l 1
 375 600 l 1
 485 600 l 1
 580 180 l 1
 680 860 l 5
 840 860 l 1
 710 0 l 1
 505 0 l 1
 430 350 l 1
 345 0 l 1
 170 0 l 1
 20 600 l 1
EndSplineSet
EndChar

StartChar: uni0E43
Encoding: 3651 3651 39
Width: 320
VWidth: 0
Flags: W
HStem: 0 21G<100 260> 980 100<118.181 201.819>
VStem: -20 130<920 973.013> 100 160<0 755.806> 210 130<843.05 973.846>
LayerCount: 2
Fore
SplineSet
160 1080 m 0xe8
 259 1080 340 1023 340 920 c 0xe8
 340 822 260 770 260 680 c 2
 260 0 l 1
 100 0 l 1
 100 640 l 2xd0
 100 800 210 821 210 920 c 0
 210 953 196 980 160 980 c 4
 124 980 110 953 110 920 c 1
 -20 920 l 1
 -20 1023 61 1080 160 1080 c 0xe8
EndSplineSet
EndChar

StartChar: uni0E44
Encoding: 3652 3652 40
Width: 300
VWidth: 0
Flags: W
HStem: 0 21G<80 240> 960 100<10 220>
VStem: 80 160<0 834.288>
LayerCount: 2
Fore
SplineSet
350 1060 m 1
 380 1000 l 1
 380 1000 240 895.909 240 790 c 2
 240 0 l 1
 80 0 l 1
 80 760 l 2
 80 852.007 220 960 220 960 c 5
 10 960 l 1
 -20 1060 l 1
 350 1060 l 1
EndSplineSet
EndChar

StartChar: uni0E29
Encoding: 3625 3625 41
Width: 730
VWidth: 0
Flags: W
HStem: -18 130<263.239 436.761> 270 100<320 480 640 720> 580 20G<60 220 480 640>
VStem: 60 160<159.242 600> 480 160<159.242 270 370 600>
LayerCount: 2
Fore
SplineSet
60 600 m 1
 220 600 l 1
 220 250 l 2
 220 146 279 112 350 112 c 0
 421 112 480 146 480 250 c 2
 480 270 l 1
 320 270 l 1
 320 370 l 1
 480 370 l 1
 480 600 l 1
 640 600 l 1
 640 370 l 1
 720 370 l 1
 720 270 l 1
 640 270 l 1
 640 220 l 2
 640 44 477 -18 350 -18 c 0
 223 -18 60 44 60 220 c 2
 60 600 l 1
EndSplineSet
EndChar

StartChar: uni0E42
Encoding: 3650 3650 42
Width: 300
VWidth: 0
Flags: W
HStem: 0 21G<80 240> 960 100<150 370>
VStem: 80 160<0 877.316>
LayerCount: 2
Fore
SplineSet
30 1060 m 1
 400 1060 l 1
 370 960 l 1
 150 960 l 5
 150 960 240 882.007 240 790 c 2
 240 0 l 1
 80 0 l 1
 80 820 l 2
 80 925.909 0 1000 0 1000 c 1
 30 1060 l 1
EndSplineSet
EndChar

StartChar: uni0E06
Encoding: 3590 3590 44
Width: 750
VWidth: 0
Flags: W
HStem: -18 130<369.798 487.068> 0 21G<125 285> 598 2G<76.4078 113.469 296.531 333.592 530 690>
VStem: 125 160<0 110 180.042 420> 530 160<157.807 600>
LayerCount: 2
Fore
SplineSet
90 618 m 5x78
 205 520 l 5
 320 618 l 5
 390 515 l 5
 390 515 285 453 285 400 c 6
 285 280 l 6
 285 181 347 112 410 112 c 4
 468 112 530 144 530 252 c 6
 530 600 l 5
 690 600 l 5
 690 214 l 6
 690 53 590 -18 470 -18 c 4xb8
 345 -18 296 74 285 110 c 5
 285 0 l 5
 125 0 l 5
 125 420 l 5
 20 515 l 5
 90 618 l 5x78
EndSplineSet
EndChar

StartChar: uni0E31
Encoding: 3633 3633 45
Width: 0
VWidth: 0
Flags: W
HStem: 700 100<-281.827 -134.375>
VStem: -420 130<805.373 890> -110 140<823.656 890>
LayerCount: 2
Back
SplineSet
-430 890 m 5
 -290 890 l 5
 -276 837 -250 810 -195 810 c 4
 -140 810 -114 837 -100 890 c 5
 40 890 l 5
 8 763 -79 700 -195 700 c 4
 -311 700 -398 763 -430 890 c 5
EndSplineSet
Fore
SplineSet
-290 890 m 5
 -290 877 -290 866 -290 857 c 5
 -290 808 -267 800 -225 800 c 6
 -200 800 l 6
 -145 800 -110 837 -110 890 c 5
 30 890 l 5
 30 770 -68 700 -180 700 c 6
 -245 700 l 6
 -333 700 -420 752 -420 830 c 4
 -420 890 l 5
 -290 890 l 5
EndSplineSet
Position2: "Vowel Above-Left" dx=-200 dy=0 dh=0 dv=0
EndChar

StartChar: uni0E39
Encoding: 3641 3641 47
Width: 0
VWidth: 0
Flags: W
HStem: -340 90<-332.828 -237.172>
VStem: -480 140<-243.195 -151.533> -230 140<-243.195 -80>
LayerCount: 2
Fore
SplineSet
-410 -60 m 5
 -410 -60 -340 -85 -340 -180 c 6
 -340 -205 l 5
 -339 -231 -315 -250 -285 -250 c 4
 -255 -250 -231 -231 -230 -205 c 5
 -230 -80 l 5
 -90 -80 l 5
 -90 -250 l 6
 -90 -295 -171 -340 -285 -340 c 4
 -399 -340 -480 -295 -480 -250 c 4
 -480 -230 -480 -220 -480 -200 c 4
 -480 -159 -510 -150 -510 -150 c 5
 -410 -60 l 5
EndSplineSet
Position2: "Vowel Below-Low" dx=0 dy=-200 dh=0 dv=0
EndChar

StartChar: uni0E03
Encoding: 3587 3587 48
Width: 670
VWidth: 0
Flags: W
HStem: -18 130<272.304 413.719> 598 2G<78.3495 115.51 314.49 351.65 450 610>
VStem: 70 160<154.198 341.841> 450 160<152.369 600>
LayerCount: 2
Fore
SplineSet
30 515 m 5
 90 618 l 5
 215 520 l 5
 340 618 l 5
 400 515 l 5
 400 515 230 394 230 240 c 4
 230 146 291 112 340 112 c 4
 389 112 450 136 450 230 c 6
 450 600 l 5
 610 600 l 5
 610 220 l 6
 610 44 467 -18 340 -18 c 4
 213 -18 70 54 70 230 c 4
 70 348 150 420 150 420 c 5
 30 515 l 5
EndSplineSet
EndChar

StartChar: uni0E22
Encoding: 3618 3618 49
Width: 712
VWidth: 0
Flags: W
HStem: -18 130<257.126 473.797> 290 100<235.544 390> 499 110<219.824 364.43> 580 20G<492 652>
VStem: 52 160<154.247 265.772> 72 140<414.75 490.133> 492 160<133.664 600>
LayerCount: 2
Back
SplineSet
350 609 m 4xe8
 391 609 400 601 400 601 c 5
 400 476 l 5
 400 476 393 479 370 479 c 4xe8
 298 479 220 443 194 370 c 5
 400 370 l 5
 400 270 l 5
 184 270 l 5
 196 173 275 102 360 102 c 4
 461 102 490 140 490 140 c 5
 490 600 l 5
 650 600 l 5xd8
 650 80 l 5
 650 80 553 -18 360 -18 c 4
 154 -18 42 124 42 300 c 4
 42 476 164 609 350 609 c 4xe8
EndSplineSet
Fore
SplineSet
272 609 m 0xe6
 349 609 402 575 402 575 c 1
 353 480 l 1
 353 480 326 499 282 499 c 0
 237 499 212 480 212 450 c 0xe6
 212 420 267 390 322 390 c 2
 390 390 l 1
 390 290 l 1
 322 290 l 2
 261 290 212 265 212 210 c 0
 212 155 271 112 352 112 c 0
 453 112 492 150 492 150 c 1
 492 600 l 1
 652 600 l 1
 652 80 l 1
 652 80 545 -18 352 -18 c 0
 173 -18 52 78 52 200 c 0xda
 52 262 84 318 134 348 c 1
 105 367 72 398 72 456 c 0
 72 552 159 609 272 609 c 0xe6
EndSplineSet
EndChar

StartChar: uni0E46
Encoding: 3654 3654 50
Width: 660
VWidth: 0
Flags: W
HStem: -340 110<270 357.113> 286 50<144.317 216> 416 50<143.096 216> 533 73<148.173 248.863>
VStem: 60 71<442 515.336> 220 50<340 412> 420 150<-161.993 501.095>
LayerCount: 2
Fore
SplineSet
195 606 m 0
 246 606 301 573 311 545 c 1
 365 606 l 1
 420 606 l 1
 477 589 570 512 570 410 c 2
 570 -60 l 2
 570 -213 433 -340 270 -340 c 1
 270 -230 l 1
 367 -230 420 -163 420 -60 c 2
 420 410 l 2
 420 484 411 520 389 530 c 1
 328 460 l 1
 270 460 l 1
 270 479 246 533 198 533 c 0
 152 533 131 492 131 442 c 1
 137 454 152 466 180 466 c 0
 230 466 270 426 270 376 c 0
 270 326 230 286 180 286 c 0
 109 286 60 345 60 436 c 0
 60 518 111 606 195 606 c 0
180 416 m 0
 158 416 140 398 140 376 c 0
 140 354 158 336 180 336 c 0
 202 336 220 354 220 376 c 0
 220 398 202 416 180 416 c 0
EndSplineSet
EndChar

StartChar: uni0E47
Encoding: 3655 3655 51
Width: 0
VWidth: 0
Flags: W
HStem: 660 57<-263.649 -216.128> 801 45<-204.539 -155.461> 861 75<-407.206 -190.515>
VStem: -520 100<747.852 849.062> -250 45<751.463 800.539> -180 100<946.659 1006> -155 45<751.566 800.539>
LayerCount: 2
Fore
SplineSet
-180 1006 m 1xfc
 -80 1006 l 1
 -80 934 -148 861 -220 861 c 2
 -350 861 l 2
 -398 861 -420 835 -420 796 c 0
 -420 761 -388 744 -388 744 c 1
 -350 800 l 1
 -290 800 l 1
 -279 750 -252 717 -213 717 c 1
 -232 730 -250 751 -250 776 c 0
 -250 815 -219 846 -180 846 c 0xfc
 -141 846 -110 815 -110 776 c 0xfa
 -110 719 -154 660 -230 660 c 0
 -275 660 -310 688 -330 721 c 1
 -365 666 l 1
 -437 666 -520 707 -520 796 c 0
 -520 868 -452 936 -370 936 c 2
 -240 936 l 2
 -197 936 -180 967 -180 1006 c 1xfc
-180 801 m 0
 -194 801 -205 790 -205 776 c 0
 -205 762 -194 751 -180 751 c 0xfc
 -166 751 -155 762 -155 776 c 0xfa
 -155 790 -166 801 -180 801 c 0
EndSplineSet
Position2: "Vowel Above-Left" dx=-120 dy=0 dh=0 dv=0
EndChar

StartChar: uni0E0B
Encoding: 3595 3595 52
Width: 740
VWidth: 0
Flags: W
HStem: -18 130<328.572 477.696> 598 20G<76.4078 113.469 296.531 333.592>
VStem: 125 160<153.643 420> 520 160<154.198 324.218>
LayerCount: 2
Fore
SplineSet
615 670 m 5
 710 560 l 5
 560 425 l 5
 560 425 680 379 680 230 c 4
 680 54 537 -18 410 -18 c 4
 283 -18 125 44 125 220 c 6
 125 420 l 5
 20 515 l 5
 90 618 l 5
 205 520 l 5
 320 618 l 5
 390 515 l 5
 390 515 285 453 285 400 c 6
 285 230 l 6
 285 136 361 112 410 112 c 4
 459 112 520 146 520 240 c 4
 520 359 370 435 370 435 c 5
 615 670 l 5
EndSplineSet
EndChar

StartChar: uni0E02
Encoding: 3586 3586 53
Width: 650
VWidth: 0
Flags: W
HStem: -18 130<252.304 393.719> 598 2G<125.714 168.777 430 590>
VStem: 50 160<154.198 337.88> 430 160<152.369 600>
LayerCount: 2
Fore
SplineSet
55 499 m 5
 140 618 l 5
 340 479 l 5
 340 479 210 359 210 240 c 0
 210 146 271 112 320 112 c 0
 369 112 430 136 430 230 c 2
 430 600 l 1
 590 600 l 1
 590 220 l 2
 590 44 447 -18 320 -18 c 0
 193 -18 50 54 50 230 c 0
 50 379 160 429 160 429 c 5
 55 499 l 5
EndSplineSet
EndChar

StartChar: uni0E0A
Encoding: 3594 3594 54
Width: 670
VWidth: 0
Flags: W
HStem: -18 130<260.148 413.415> 580 20G<60 220>
VStem: 60 160<152.369 600> 460 160<160.011 312.584>
LayerCount: 2
Fore
SplineSet
220 600 m 5
 220 230 l 6
 220 136 291 112 340 112 c 4
 389 112 460 146 460 240 c 4
 460 359 265 435 265 435 c 5
 545 670 l 5
 640 560 l 5
 470 425 l 5
 470 425 620 379 620 230 c 4
 620 54 467 -18 340 -18 c 4
 213 -18 60 44 60 220 c 6
 60 600 l 5
 220 600 l 5
EndSplineSet
EndChar

StartChar: uni0E07
Encoding: 3591 3591 57
Width: 590
VWidth: 0
Flags: W
HStem: -18 21G<245.799 348> 589 20G<273.846 368>
VStem: 400 150<198.369 400.658>
LayerCount: 2
Fore
SplineSet
240 479 m 1
 280 609 l 1
 456 609 550 476 550 300 c 0
 550 124 436 -18 260 -18 c 1
 20 320 l 1
 135 405 l 1
 320 136 l 1
 360 166 400 219 400 300 c 0
 400 399 338 479 240 479 c 1
EndSplineSet
EndChar

StartChar: uni0E0E
Encoding: 3598 3598 58
Width: 700
VWidth: 0
Flags: W
HStem: -340 100<80 480> -18 21G<44.2029 100.5> 488 130<254.892 443.641>
VStem: 90 160<141.109 471.389> 480 160<-240 447.631>
LayerCount: 2
Fore
SplineSet
365 618 m 0
 492 618 640 556 640 380 c 2
 640 -340 l 1
 500 -340 l 1
 500 -340 420 -340 340 -340 c 2
 80 -340 l 1
 80 -240 l 1
 340 -240 l 2
 480 -240 l 5
 480 350 l 2
 480 454 432 488 365 488 c 0
 298 488 250 460 250 460 c 1
 250 180 l 2
 250 2 151 -18 50 -18 c 1
 10 120 l 1
 59 120 90 134 90 230 c 2
 90 520 l 1
 90 520 178 618 365 618 c 0
EndSplineSet
Substitution2: "Descent Shorten" uni0E0E.shorten
EndChar

StartChar: uni0E2B
Encoding: 3627 3627 59
Width: 700
VWidth: 0
Flags: W
HStem: 0 21G<60 220 480 640> 330 100<220 421.705> 580 20G<60 220 480 640>
VStem: 60 160<0 330 430 600> 480 160<0 267.624 497 600>
LayerCount: 2
Fore
SplineSet
60 600 m 1
 220 600 l 1
 220 430 l 1
 350 430 l 2
 457 430 480 552 480 600 c 1
 640 600 l 1
 640 514 619 445 560 370 c 1
 601 332 640 288 640 208 c 2
 640 0 l 1
 480 0 l 1
 480 170 l 2
 480 278 408 330 350 330 c 4
 220 330 l 5
 220 0 l 1
 60 0 l 1
 60 600 l 1
EndSplineSet
EndChar

StartChar: uni0E3A
Encoding: 3642 3642 60
Width: 0
VWidth: 0
Flags: W
HStem: -230 160<-209.504 -90.4964>
VStem: -230 160<-209.504 -90.4964>
LayerCount: 2
Fore
SplineSet
-70 -150 m 0
 -70 -195 -105 -230 -150 -230 c 0
 -195 -230 -230 -195 -230 -150 c 0
 -230 -105 -195 -70 -150 -70 c 0
 -105 -70 -70 -105 -70 -150 c 0
EndSplineSet
Position2: "Vowel Below-Low" dx=0 dy=-200 dh=0 dv=0
EndChar

StartChar: uni0E53
Encoding: 3667 3667 61
Width: 792
VWidth: 0
Flags: W
HStem: -9 140<266.033 419.995> 0 21G<572 732> 589 20G<234 331.569 521.474 580>
VStem: 42 160<197.628 416.789> 572 160<0 470>
LayerCount: 2
Fore
SplineSet
340 -9 m 0xb8
 154 -9 42 124 42 300 c 0
 42 476 146 609 322 609 c 1
 422 400 l 1
 532 609 l 1
 628 609 732 540 732 540 c 1
 732 0 l 1
 572 0 l 1x78
 572 470 l 1
 462 260 l 1
 382 260 l 1
 282 465 l 1
 227 441 202 386 202 300 c 0
 202 186 267 131 360 131 c 0
 415 131 420 144 420 144 c 1
 420 9 l 1
 420 9 413 -9 340 -9 c 0xb8
EndSplineSet
EndChar

StartChar: uni0E24
Encoding: 3620 3620 62
Width: 700
VWidth: 0
Flags: W
HStem: -18 21G<266.768 295.797> 488 130<222.777 436.761>
VStem: 60 160<163.771 473.344> 480 160<-340 440.758>
LayerCount: 2
Fore
SplineSet
350 618 m 0
 477 618 640 556 640 380 c 2
 640 -340 l 5
 480 -340 l 5
 480 350 l 2
 480 454 421 488 350 488 c 0
 249 488 220 460 220 460 c 1
 220 460 220 350 220 230 c 0
 220 134 330 120 330 120 c 1
 290 -18 l 1
 290 -18 60 2 60 180 c 0
 60 520 l 1
 60 520 157 618 350 618 c 0
EndSplineSet
EndChar

StartChar: uni0E26
Encoding: 3622 3622 63
Width: 700
VWidth: 0
Flags: W
HStem: -18 21G<44.2029 100.45> 488 130<254.892 443.641>
VStem: 90 160<141.109 471.389> 480 160<-340 447.631>
LayerCount: 2
Fore
SplineSet
365 618 m 4
 492 618 640 556 640 380 c 6
 640 -340 l 5
 480 -340 l 5
 480 350 l 6
 480 454 432 488 365 488 c 4
 298 488 250 460 250 460 c 5
 250 180 l 6
 250 2 150.9 -18 50 -18 c 5
 10 120 l 5
 58.6914 120 90 134 90 230 c 6
 90 520 l 5
 90 520 178 618 365 618 c 4
EndSplineSet
EndChar

StartChar: uni0E45
Encoding: 3653 3653 64
Width: 270
VWidth: 0
Flags: W
HStem: 502 110<-51.7361 57.277>
VStem: -210 140<414 483.159> 80 160<-332 478.362>
LayerCount: 2
Fore
SplineSet
80 -332 m 1
 80 382 l 2
 80 470 50 502 0 502 c 0
 -48 502 -70 465 -70 414 c 1
 -210 414 l 1
 -210 515 -163 612 0 612 c 0
 163 612 240 513 240 382 c 2
 240 -332 l 1
 80 -332 l 1
EndSplineSet
EndChar

StartChar: uni0E17
Encoding: 3607 3607 67
Width: 700
VWidth: 0
Flags: W
HStem: 0 21G<60 220 480 640> 488 130<306.29 429.685> 580 20G<60 220>
VStem: 60 160<0 425.336 490 600> 480 160<0 435.623>
LayerCount: 2
Fore
SplineSet
60 600 m 5xb8
 220 600 l 5xb8
 220 490 l 5
 236 526 280 618 410 618 c 4
 535 618 640 547 640 386 c 6
 640 0 l 5
 480 0 l 5
 480 348 l 6
 480 456 408 488 350 488 c 4xd8
 277 488 220 424 220 320 c 6
 220 0 l 5
 60 0 l 5
 60 600 l 5xb8
EndSplineSet
EndChar

StartChar: uni0E2C
Encoding: 3628 3628 68
Width: 850
VWidth: 0
Flags: W
HStem: 0 21G<165 351.071 499.643 695.517> 530 100<660 820> 540 90<500 547.971> 580 20G<20 194>
VStem: 625 160<249.922 465.535>
LayerCount: 2
Fore
SplineSet
820 630 m 1xc8
 820 530 l 1
 660 530 l 1xc8
 660 530 785 512 785 390 c 4
 785 354 779 325 770 290 c 2
 690 0 l 1
 505 0 l 1
 430 280 l 1
 345 0 l 1
 170 0 l 1
 20 600 l 1
 190 600 l 1x98
 280 150 l 1
 375 440 l 1
 485 440 l 1
 580 150 l 1
 615 290 l 2
 620 316 625 358 625 390 c 0
 625 494 500 540 500 540 c 1
 500 630 l 1xa8
 820 630 l 1xc8
EndSplineSet
EndChar

StartChar: uni0E18
Encoding: 3608 3608 69
Width: 670
VWidth: 0
Flags: W
HStem: -18 120<248.379 431.621> 508 110<243.42 443.718>
VStem: 70 160<123.664 280> 450 160<123.664 306.689>
LayerCount: 2
Back
SplineSet
330 618 m 4xe8
 483 618 610 540 610 420 c 5
 460 420 l 5
 460 475 406 508 330 508 c 4
 262 508 200 478 200 440 c 4xe8
 200 398 247 385 340 380 c 4
 443 374 600 363 600 230 c 6
 600 80 l 5
 600 80 517 -18 340 -18 c 4
 163 -18 80 80 80 80 c 5
 80 280 l 5
 240 280 l 5
 240 140 l 5xd8
 240 140 274 102 340 102 c 4
 406 102 440 140 440 140 c 5
 440 230 l 6
 440 272 394 294 320 300 c 4
 231 307 60 309 60 440 c 4
 60 534 177 618 330 618 c 4xe8
EndSplineSet
Fore
SplineSet
340 618 m 0
 513 618 620 493 620 430 c 1
 480 430 l 1
 480 461 436 508 340 508 c 0
 251 508 207 460 200 420 c 1
 431 402 610 394 610 270 c 2
 610 80 l 1
 610 80 517 -18 340 -18 c 0
 163 -18 70 80 70 80 c 1
 70 280 l 1
 230 280 l 1
 230 140 l 1
 230 140 274 102 340 102 c 0
 406 102 450 140 450 140 c 1
 450 290 l 2
 450 340 50 350 50 350 c 1
 50 512 187 618 340 618 c 0
EndSplineSet
EndChar

StartChar: uni0E10
Encoding: 3600 3600 70
Width: 650
VWidth: 0
Flags: W
HStem: -340 260<419 569> -340 100<19 179> -18 21<289.808 404.5> 508 110<233.42 433.718>
VStem: 410 160<80 310.622> 419 150<-240 -80>
LayerCount: 2
Fore
SplineSet
569 -80 m 1xb4
 569 -340 l 1xb4
 389 -340 l 1
 299 -240 l 1
 209 -340 l 1
 19 -340 l 1
 19 -240 l 1
 179 -240 l 1
 299 -110 l 1
 419 -240 l 1x74
 419 -80 l 1
 569 -80 l 1xb4
EndSplineSet
Refer: 18 63232 N 1 0 0 1 0 0 2
Substitution2: "Descent Substitute" uni0E10.descless
EndChar

StartChar: uni0E2F
Encoding: 3631 3631 71
Width: 520
VWidth: 0
Flags: W
HStem: -60 110<180 274.759> 315 85<156.902 294.687> 535 55<86.5001 153.5>
VStem: 30 55<468.807 533.5> 155 55<466.589 533.5> 320 160<100.788 350> 360 120<474.152 570>
LayerCount: 2
Fore
SplineSet
120 590 m 0xfc
 170 590 210 550 210 500 c 0
 210 464 182 427 155 425 c 1
 169 410 199 400 220 400 c 0
 302 400 360 482 360 570 c 1
 480 570 l 1xfa
 480 200 l 2
 480 47 343 -60 180 -60 c 1
 180 50 l 1
 277 50 320 97 320 200 c 2
 320 350 l 1
 320 350 298 315 220 315 c 0
 134 315 30 373 30 500 c 0
 30 550 70 590 120 590 c 0xfc
120 535 m 0
 101 535 85 519 85 500 c 0
 85 481 101 465 120 465 c 0
 139 465 155 481 155 500 c 0
 155 519 139 535 120 535 c 0
EndSplineSet
EndChar

StartChar: uni0E5A
Encoding: 3674 3674 72
Width: 700
VWidth: 0
Flags: W
HStem: -60 110<180 271.969> 315 85<156.902 294.687> 535 55<86.5001 153.5>
VStem: 30 55<468.807 533.5> 155 55<466.589 533.5> 320 130<100.788 350> 360 90<474.152 570> 510 130<75.212 570>
LayerCount: 2
Fore
SplineSet
120 590 m 0xfd
 170 590 210 550 210 500 c 0
 210 464 182 427 155 425 c 1
 169 410 199 400 220 400 c 0
 302 400 360 482 360 570 c 1
 450 570 l 1xfb
 450 200 l 2
 450 47 343 -60 180 -60 c 1
 180 50 l 1
 277 50 320 97 320 200 c 2
 320 350 l 1
 320 350 298 315 220 315 c 0
 134 315 30 373 30 500 c 0
 30 550 70 590 120 590 c 0xfd
510 570 m 1
 640 570 l 1
 640 130 l 2
 640 20 515 -32 455 -60 c 1
 420 13 l 1
 460 37 510 87 510 160 c 2
 510 570 l 1
120 535 m 0
 101 535 85 519 85 500 c 0
 85 481 101 465 120 465 c 0
 139 465 155 481 155 500 c 0
 155 519 139 535 120 535 c 0
EndSplineSet
EndChar

StartChar: uni0E13
Encoding: 3603 3603 73
Width: 1000
VWidth: 0
Flags: W
HStem: -18 21G<266.768 295.797> 0 21G<780 940> 488 130<223.893 427.235> 580 20G<780 940>
VStem: 60 160<163.771 474> 470 160<121 440.758> 780 160<0 100 230 600>
LayerCount: 2
Fore
SplineSet
345 618 m 0xae
 472 618 630 556 630 380 c 2
 630 121 l 1
 780 230 l 1
 780 600 l 1
 940 600 l 1
 940 0 l 1
 780 0 l 1x5e
 780 100 l 1
 630 -9 l 1
 521 -9 470 90 470 90 c 1
 470 350 l 2
 470 454 416 488 345 488 c 0
 244 488 220 460 220 460 c 1
 220 230 l 2
 220 134 330 120 330 120 c 1
 290 -18 l 1
 290 -18 60 2 60 180 c 2
 60 520 l 1
 60 520 152 618 345 618 c 0xae
EndSplineSet
EndChar

StartChar: uni0E08
Encoding: 3592 3592 74
Width: 680
VWidth: 0
Flags: W
HStem: -18 21G<279.434 408> 488 130<235.279 401.659>
VStem: 488 150<213.067 396.131>
LayerCount: 2
Fore
SplineSet
320 618 m 0
 496 618 638 476 638 300 c 0
 638 124 496 -18 320 -18 c 2
 290 -18 l 1
 122 300 l 5
 282 300 l 1
 365 130 l 1
 428 155 488 224 488 300 c 0
 488 404 413 488 320 488 c 0
 260 488 202 453 183 400 c 1
 22 400 l 1
 54 527 179 618 320 618 c 0
EndSplineSet
EndChar

StartChar: uni0E0F
Encoding: 3599 3599 76
Width: 700
VWidth: 0
Flags: W
HStem: -340 100<80 240> -18 21G<44.2029 100.5> 488 130<254.892 443.641>
VStem: 90 160<141.109 471.389> 480 160<-240 447.631>
LayerCount: 2
Fore
SplineSet
365 618 m 0
 492 618 640 556 640 380 c 2
 640 -340 l 1
 450 -340 l 1
 360 -240 l 5
 270 -340 l 5
 270 -340 176 -340 80 -340 c 5
 80 -240 l 5
 240 -240 l 5
 360 -110 l 5
 480 -240 l 1
 480 350 l 2
 480 454 432 488 365 488 c 0
 298 488 250 460 250 460 c 1
 250 180 l 2
 250 2 151 -18 50 -18 c 1
 10 120 l 1
 59 120 90 134 90 230 c 2
 90 520 l 1
 90 520 178 618 365 618 c 0
EndSplineSet
Substitution2: "Descent Shorten" uni0E0F.shorten
EndChar

StartChar: uni0E4B
Encoding: 3659 3659 77
Width: 0
VWidth: 0
Flags: W
HStem: 1025 70<-360 -265 -155 -60>
VStem: -265 110<940 1025 1095 1180>
LayerCount: 2
Fore
SplineSet
-265 1180 m 5
 -155 1180 l 5
 -155 1095 l 5
 -60 1095 l 5
 -60 1025 l 5
 -155 1025 l 5
 -155 940 l 5
 -265 940 l 5
 -265 1025 l 5
 -360 1025 l 5
 -360 1095 l 5
 -265 1095 l 5
 -265 1180 l 5
EndSplineSet
Position2: "Nikhahit & Tone High-Left" dx=-180 dy=0 dh=0 dv=0
Position2: "Mai Han-Akat & Tone High-Left" dx=-220 dy=0 dh=0 dv=0
Position2: "Tone High-Left" dx=-130 dy=0 dh=0 dv=0
MultipleSubs2: "Tone High-Low" uni0E4B.low
EndChar

StartChar: uni0E0F.shorten
Encoding: 63290 63290 78
Width: 700
VWidth: 0
Flags: W
HStem: -220 100<80 240> -18 21G<44.2029 100.5> 488 130<254.892 443.641>
VStem: 90 160<141.109 471.389> 480 160<-120 447.631>
LayerCount: 2
Fore
SplineSet
365 618 m 0
 492 618 640 556 640 380 c 2
 640 -220 l 1
 450 -220 l 1
 360 -120 l 1
 270 -220 l 5
 270 -220 176 -220 80 -220 c 1
 80 -120 l 1
 240 -120 l 1
 360 10 l 1
 480 -120 l 1
 480 350 l 2
 480 454 432 488 365 488 c 0
 298 488 250 460 250 460 c 1
 250 180 l 2
 250 2 151 -18 50 -18 c 1
 10 120 l 1
 59 120 90 134 90 230 c 2
 90 520 l 1
 90 520 178 618 365 618 c 0
EndSplineSet
EndChar

StartChar: uni0E0E.shorten
Encoding: 63291 63291 79
Width: 700
VWidth: 0
Flags: W
HStem: -220 100<80 480> -18 21G<44.2029 100.5> 488 130<254.892 443.641>
VStem: 90 160<141.109 471.389> 480 160<-120 447.631>
LayerCount: 2
Fore
SplineSet
365 618 m 0
 492 618 640 556 640 380 c 2
 640 -220 l 1
 500 -220 l 1
 500 -220 420 -220 340 -220 c 2
 80 -220 l 1
 80 -120 l 1
 340 -120 l 2
 480 -120 l 5
 480 350 l 2
 480 454 432 488 365 488 c 0
 298 488 250 460 250 460 c 1
 250 180 l 2
 250 2 151 -18 50 -18 c 1
 10 120 l 1
 59 120 90 134 90 230 c 2
 90 520 l 1
 90 520 178 618 365 618 c 0
EndSplineSet
EndChar

StartChar: uni0E5B
Encoding: 3675 3675 80
Width: 1340
VWidth: 0
Flags: W
HStem: -12 80<256.759 449.994> 139 67<306.229 401.482> 231 90<1000.57 1220> 246 55<298 325.885> 391 55<263.416 326.278> 533 79<230.347 385.709>
VStem: 60 90<183.096 436.297> 200 60<302.674 389.423> 330 55<302.965 389.423> 440 90<251.381 475.161> 615 95<523.712 560>
LayerCount: 2
Fore
SplineSet
310 612 m 0xefe0
 447 612 530 504 530 380 c 0
 530 237 458 139 355 139 c 0
 244 139 200 227 200 346 c 0
 200 401 245 446 295 446 c 0
 345 446 385 401 385 346 c 0
 385 292 346 248 298 246 c 1xdfe0
 307 224 320 206 355 206 c 0
 401 206 440 271 440 380 c 0
 440 483 375 533 310 533 c 0
 212 533 150 446 150 300 c 0
 150 159 244 68 350 68 c 0
 540 68 600 274 615 560 c 1
 710 560 l 1
 785 236 l 1
 855 500 l 1
 935 500 l 1
 954 417 990 321 1050 321 c 2
 1220 321 l 1
 1220 231 l 1
 1050 231 l 2
 953 231 900 346 900 346 c 1
 835 90 l 1
 745 89 l 1
 675 380 l 1
 660 261 616 -12 350 -12 c 0
 151 -12 60 153 60 300 c 0
 60 487 160 612 310 612 c 0xefe0
295 391 m 0
 276 391 260 371 260 346 c 0
 260 321 276 301 295 301 c 0
 314 301 330 321 330 346 c 0
 330 371 314 391 295 391 c 0
EndSplineSet
EndChar

StartChar: uni0E4E
Encoding: 3662 3662 81
Width: 0
VWidth: 0
Flags: W
HStem: 680 70<-408.214 -370> 867 21G<-337.5 -318.312> 1070 70<-318.46 -241.54>
VStem: -510 90<758.912 881.014> -420 90<946.9 1061.09> -230 90<1000 1060.56>
LayerCount: 2
Fore
SplineSet
-280 1140 m 0xec
 -203 1140 -140 1077 -140 1000 c 1
 -230 1000 l 1
 -230 1039 -252 1070 -280 1070 c 0
 -308 1070 -330 1039 -330 1000 c 0xec
 -330 964 -311 935 -286 931 c 1
 -333 867 l 1
 -342 881 -355 890 -370 890 c 0
 -398 890 -420 859 -420 820 c 0
 -420 781 -398 750 -370 750 c 1
 -370 680 l 1
 -447 680 -510 743 -510 820 c 0xf4
 -510 883 -469 936 -412 954 c 1
 -417 968 -420 984 -420 1000 c 0
 -420 1077 -357 1140 -280 1140 c 0xec
EndSplineSet
EndChar

StartChar: uni0E4F
Encoding: 3663 3663 82
Width: 760
VWidth: 0
Flags: W
HStem: 0 100<281.933 478.067> 170 85<340.339 419.661> 345 85<340.339 419.661> 500 100<281.933 478.067>
VStem: 80 100<201.933 398.067> 250 85<260.339 339.661> 425 85<260.339 339.661> 580 100<201.933 398.067>
LayerCount: 2
Fore
SplineSet
380 600 m 0
 546 600 680 466 680 300 c 0
 680 134 546 0 380 0 c 0
 214 0 80 134 80 300 c 0
 80 466 214 600 380 600 c 0
380 500 m 0
 269 500 180 411 180 300 c 0
 180 189 269 100 380 100 c 0
 491 100 580 189 580 300 c 0
 580 411 491 500 380 500 c 0
380 430 m 0
 452 430 510 372 510 300 c 0
 510 228 452 170 380 170 c 0
 308 170 250 228 250 300 c 0
 250 372 308 430 380 430 c 0
380 345 m 0
 355 345 335 325 335 300 c 0
 335 275 355 255 380 255 c 0
 405 255 425 275 425 300 c 0
 425 325 405 345 380 345 c 0
EndSplineSet
EndChar

StartChar: uni0E51
Encoding: 3665 3665 83
Width: 744
VWidth: 0
Flags: W
HStem: -60 100<372 457.09> 75 110<217.448 318.033> 350 75<326.496 413.504> 502 110<268.542 461.763>
VStem: 40 140<222.552 414.893> 245 75<256.874 343.504> 420 75<257.641 343.504> 544 160<147.084 412.125>
LayerCount: 2
Fore
SplineSet
370 612 m 0
 555 612 704 481 704 300 c 0
 704 104 593 -60 372 -60 c 1
 372 40 l 1
 474 40 544 120 544 300 c 0
 544 422 478 502 370 502 c 0
 262 502 180 435 180 315 c 0
 180 235 222 185 270 185 c 0
 287 185 311 185 320 195 c 1
 282 207 245 240 245 300 c 0
 245 369 301 425 370 425 c 0
 439 425 495 369 495 300 c 0
 495 192 415 75 280 75 c 0
 128 75 40 189 40 300 c 0
 40 472 185 612 370 612 c 0
370 350 m 0
 342 350 320 328 320 300 c 0
 320 272 342 250 370 250 c 0
 398 250 420 272 420 300 c 0
 420 328 398 350 370 350 c 0
EndSplineSet
EndChar

StartChar: uni0E52
Encoding: 3666 3666 84
Width: 880
VWidth: 0
Flags: W
HStem: 0 100<230 690> 139 80<443.883 527.908> 319 80<441.686 527.908> 501 105<404.066 492.767>
VStem: 60 170<100 721.129> 270 115<338.855 483.959> 535 80<226.092 311.908> 690 170<100 496.177>
LayerCount: 2
Fore
SplineSet
628 606 m 1
 670 606 l 1
 747 593 860 545 860 400 c 2
 860 90 l 2
 860 31 798 0 740 0 c 2
 180 0 l 2
 120 0 60 30 60 90 c 2
 60 600 l 2
 60 686 0 810 0 810 c 1
 170 810 l 1
 170 810 226 693 230 600 c 1
 230 100 l 1
 690 100 l 1
 690 370 l 2
 690 431 681 461 665 499 c 1
 605 419 l 1
 519 419 l 1
 511 448 491 501 445 501 c 0
 399 501 385 437 385 389 c 0
 385 368 388 345 392 338 c 1
 406 368 439 399 485 399 c 0
 557 399 615 341 615 269 c 0
 615 197 557 139 485 139 c 0
 312 139 270 281 270 385 c 0
 270 491 342 606 440 606 c 0
 540 606 571 522 571 522 c 1
 628 606 l 1
485 319 m 0
 457 319 435 297 435 269 c 0
 435 241 457 219 485 219 c 0
 513 219 535 241 535 269 c 0
 535 297 513 319 485 319 c 0
EndSplineSet
EndChar

StartChar: uni0E54
Encoding: 3668 3668 85
Width: 830
VWidth: 0
Flags: W
HStem: 0 110<257.661 445 543.784 730> 164 75<510 554.78> 349 75<465.149 555.511> 484 110<254.693 617.404>
VStem: 10 170<198.543 404.613> 365 90<248.235 339.671> 565 75<248.489 339.511> 680 170<662.106 810>
LayerCount: 2
Fore
SplineSet
680 810 m 1
 850 810 l 1
 850 598 729 484 530 484 c 2
 350 484 l 2
 240 484 180 410 180 294 c 1
 181 227 230 110 330 110 c 2
 445 110 l 1
 404 141 365 194 365 274 c 0
 365 357 429 424 510 424 c 0
 582 424 640 366 640 294 c 0
 640 222 582 164 510 164 c 1
 542 128 589 110 631 110 c 2
 730 110 l 1
 730 0 l 1
 310 0 l 2
 144 0 10 128 10 294 c 0
 10 460 164 594 330 594 c 2
 530 594 l 2
 640 594 680 659 680 810 c 1
510 349 m 0
 480 349 455 324 455 294 c 0
 455 264 480 239 510 239 c 0
 540 239 565 264 565 294 c 0
 565 324 540 349 510 349 c 0
EndSplineSet
EndChar

StartChar: uni0E55
Encoding: 3669 3669 86
Width: 830
VWidth: 0
Flags: W
HStem: 0 110<257.661 445 543.784 730> 164 75<510 554.78> 349 75<465.149 555.511> 484 146<412.437 487.563> 484 110<254.693 357 543 617.404> 710 80<413.427 486.573>
VStem: 10 170<198.543 404.613> 330 80<632.525 706.573> 365 90<248.235 339.671> 490 80<632.525 706.573> 565 75<248.489 339.511> 680 170<662.106 810>
LayerCount: 2
Fore
SplineSet
680 810 m 1xef50
 850 810 l 1
 850 598 729 484 530 484 c 2
 350 484 l 2
 240 484 180 410 180 294 c 1
 181 227 230 110 330 110 c 2xef50
 445 110 l 1
 404 141 365 194 365 274 c 0
 365 357 429 424 510 424 c 0
 582 424 640 366 640 294 c 0xeeb0
 640 222 582 164 510 164 c 1
 542 128 589 110 631 110 c 2
 730 110 l 1
 730 0 l 1
 310 0 l 2
 144 0 10 128 10 294 c 0
 10 460 164 594 330 594 c 2
 357 594 l 1
 340 615 330 641 330 670 c 0
 330 736 384 790 450 790 c 0
 516 790 570 736 570 670 c 0
 570 641 560 615 543 594 c 1
 643 599 680 665 680 810 c 1xef50
450 710 m 0
 428 710 410 692 410 670 c 0
 410 648 428 630 450 630 c 0xf750
 472 630 490 648 490 670 c 0
 490 692 472 710 450 710 c 0
510 349 m 0
 480 349 455 324 455 294 c 0
 455 264 480 239 510 239 c 0
 540 239 565 264 565 294 c 0xe6b0
 565 324 540 349 510 349 c 0
EndSplineSet
EndChar

StartChar: uni0E56
Encoding: 3670 3670 87
Width: 770
VWidth: 0
Flags: W
HStem: -12 110<313.554 473.451> 309 75<223.716 315.511> 484 110<264.995 458.924> 690 120<20 91.3149>
VStem: 130 85<208.287 299.098> 325 75<208.265 299.511> 540 170<174.661 397.356>
LayerCount: 2
Fore
SplineSet
20 690 m 1
 20 810 l 1
 120 810 235 735 273 594 c 1
 390 594 l 2
 556 594 710 460 710 294 c 0
 710 128 598 -12 405 -12 c 0
 212 -12 130 129 130 234 c 0
 130 307 189 384 270 384 c 0
 342 384 400 326 400 254 c 0
 400 194 360 144 306 129 c 1
 331 105 360 98 395 98 c 0
 496 98 540 195 540 294 c 0
 540 410 460 484 380 484 c 2
 186 484 l 1
 174 554 123 690 20 690 c 1
270 309 m 0
 240 309 215 284 215 254 c 0
 215 224 240 199 270 199 c 0
 300 199 325 224 325 254 c 0
 325 284 300 309 270 309 c 0
EndSplineSet
EndChar

StartChar: uni0E57
Encoding: 3671 3671 88
Width: 990
VWidth: 0
Flags: W
HStem: -6 95<246.709 335.453> 0 21G<570 653> 199 95<243.668 335.453> 480 120<220.752 308.469>
VStem: 20 170<263.219 430.389> 345 95<98.5471 189.453> 570 170<150 459.548> 800 170<193.096 590>
LayerCount: 2
Fore
SplineSet
490 606 m 1xbf
 570 606 l 1
 684 567 740 451 740 306 c 2
 740 150 l 1
 789 183 800 213 800 306 c 2
 800 590 l 1
 970 590 l 1
 970 306 l 2
 970 78 736 0 570 0 c 1x7f
 570 90 l 1
 570 306 l 2
 570 382 557 445 545 480 c 1
 455 319 l 1
 359 319 l 1
 359 362 327 480 260 480 c 0
 208 480 190 383 190 300 c 0
 190 289 191 274 193 259 c 1
 219 281 253 294 290 294 c 0
 373 294 440 227 440 144 c 0
 440 61 373 -6 290 -6 c 0
 111 -6 20 119 20 300 c 0
 20 466 140 600 260 600 c 0
 383 600 411 480 411 480 c 1
 490 606 l 1xbf
290 199 m 0
 260 199 235 174 235 144 c 0
 235 114 260 89 290 89 c 0xbf
 320 89 345 114 345 144 c 0
 345 174 320 199 290 199 c 0
EndSplineSet
EndChar

StartChar: uni0E58
Encoding: 3672 3672 89
Width: 860
VWidth: 0
Flags: W
HStem: -12 100<500.573 617.659> 144 75<595.22 640> 329 75<594.489 686.284> 474 120<255.406 622.096>
VStem: 10 170<183.684 397.817> 510 75<228.489 319.511> 690 170<675.903 810> 695 85<228.426 319.098>
LayerCount: 2
Fore
SplineSet
690 810 m 1xfe
 860 810 l 1xfe
 860 598 696 474 530 474 c 2
 340 474 l 2
 249 474 180 410 180 294 c 0
 180 195 220 153 260 130 c 1
 315 304 l 1
 443 304 l 1
 443 206 471 88 563 88 c 0
 606 88 627 122 640 144 c 1
 568 144 510 202 510 274 c 0
 510 346 568 404 640 404 c 0
 721 404 780 327 780 254 c 0xfd
 780 121 727 -12 558 -12 c 0
 448 -12 389 43 363 127 c 1
 320 -6 l 1
 132 -6 10 128 10 294 c 0
 10 460 174 594 340 594 c 2
 530 594 l 2
 640 594 690 659 690 810 c 1xfe
640 329 m 0
 610 329 585 304 585 274 c 0
 585 244 610 219 640 219 c 0
 670 219 695 244 695 274 c 0xfd
 695 304 670 329 640 329 c 0
EndSplineSet
EndChar

StartChar: uni0E59
Encoding: 3673 3673 90
Width: 870
VWidth: 0
Flags: W
HStem: -6 80<239.016 322.908> 174 80<236.72 322.908> 480 120<195.117 301.004>
VStem: 0 170<197.331 430.399> 330 80<81.0919 166.908> 710 180<601.103 810>
LayerCount: 2
Fore
SplineSet
710 810 m 1
 890 810 l 1
 890 626 839 340 610 340 c 1
 589 395 571 448 535 480 c 1
 495 425 l 1
 670 0 l 1
 510 0 l 1
 340 400 l 1
 340 400 306 480 240 480 c 0
 188 480 170 416 170 300 c 0
 170 251 174 206 189 197 c 1
 192 210 226 254 280 254 c 0
 352 254 410 196 410 124 c 0
 410 52 352 -6 280 -6 c 0
 114 -6 0 119 0 300 c 0
 0 466 120 600 240 600 c 0
 363 600 410 500 410 500 c 1
 480 606 l 1
 550 606 l 1
 599 574 623 530 640 500 c 1
 672 549 710 642 710 810 c 1
280 174 m 0
 252 174 230 152 230 124 c 0
 230 96 252 74 280 74 c 0
 308 74 330 96 330 124 c 0
 330 152 308 174 280 174 c 0
EndSplineSet
EndChar

StartChar: uni0E4A
Encoding: 3658 3658 91
Width: 0
VWidth: 0
Flags: W
HStem: 970 46<-326.253 -269.409> 1076 44<-319.569 -269.577> 1150 56<-318.263 -248.91>
VStem: -390 62<1017.07 1113.6> -268 46<1017.41 1074.82> -172 82<1036.48 1149.7> -66 96<1068.21 1200>
LayerCount: 2
Fore
SplineSet
-296 1206 m 0
 -264 1206 -240 1192 -226 1170 c 1
 -198 1206 l 1
 -158 1206 l 1
 -120 1192 -90 1148 -90 1096 c 0
 -90 1058 -102 1036 -102 1036 c 1
 -78 1056 -66 1078 -66 1200 c 1
 30 1200 l 1
 28 1104 4 974 -168 974 c 1
 -190 1020 l 1
 -178 1020 -172 1046 -172 1086 c 0
 -172 1126 -177 1138 -188 1150 c 1
 -212 1116 l 1
 -246 1116 l 1
 -246 1124 -265 1150 -286 1150 c 0
 -311 1150 -318 1133 -320 1116 c 1
 -312 1118 -308 1120 -298 1120 c 0
 -256 1120 -222 1086 -222 1046 c 0
 -222 1004 -256 970 -298 970 c 0
 -338 970 -390 996 -390 1082 c 0
 -390 1148 -350 1206 -296 1206 c 0
-298 1076 m 0
 -314 1076 -328 1062 -328 1046 c 0
 -328 1028 -314 1016 -298 1016 c 0
 -280 1016 -268 1028 -268 1046 c 0
 -268 1062 -280 1076 -298 1076 c 0
EndSplineSet
Position2: "Nikhahit & Tone High-Left" dx=-150 dy=0 dh=0 dv=0
Position2: "Mai Han-Akat & Tone High-Left" dx=-180 dy=0 dh=0 dv=0
Position2: "Tone High-Left" dx=-120 dy=0 dh=0 dv=0
MultipleSubs2: "Tone High-Low" uni0E4A.low
EndChar

StartChar: uni0E3F
Encoding: 3647 3647 92
Width: 640
VWidth: 0
Flags: W
HStem: 0 120<200 230 320 390.936> 390 110<200 355.07> 750 110<200 230 320 351.152>
VStem: 30 170<120 390 500 750> 230 90<-180 0 860 1040> 400 170<544.386 704.715> 440 170<163.83 334.679>
LayerCount: 2
Fore
SplineSet
230 1040 m 1xfa
 320 1040 l 1
 320 857 l 1
 492 842 570 769 570 625 c 0xfc
 570 569 541 492 470 450 c 1
 584 411 610 325 610 245 c 0
 610 70 477 0 340 0 c 2
 320 0 l 1
 320 -180 l 1
 230 -180 l 1
 230 0 l 1
 30 0 l 1
 30 860 l 1
 230 860 l 1
 230 1040 l 1xfa
200 750 m 1
 200 500 l 1
 260 500 l 2
 347 500 400 543 400 625 c 0
 400 707 355 750 230 750 c 2
 200 750 l 1
200 390 m 1
 200 120 l 1
 280 120 l 2
 359 120 440 139 440 245 c 0xfa
 440 351 373 390 270 390 c 2
 200 390 l 1
EndSplineSet
EndChar

StartChar: uni0E11
Encoding: 3601 3601 93
Width: 800
VWidth: 0
Flags: W
HStem: 1 21G<200 360 580 740> 489 130<442.248 542.235> 589 12G<65.4151 111.963 257.8 360>
VStem: 200 160<1 427.475> 580 160<1 449.635>
LayerCount: 2
Fore
SplineSet
530 619 m 0xd8
 655 619 740 548 740 387 c 2
 740 1 l 1
 580 1 l 1
 580 349 l 2
 580 457 528 489 470 489 c 0xd8
 397 489 360 405 360 301 c 2
 360 1 l 1
 200 1 l 1
 200 430 l 1
 130 371 l 1
 10 556 l 1
 99 609 l 1
 169 501 l 5
 280 601 l 1
 360 601 l 1xb8
 360 471 l 1
 371 507 410 619 530 619 c 0xd8
EndSplineSet
EndChar

StartChar: uni0E12
Encoding: 3602 3602 94
Width: 1058
VWidth: 0
Flags: W
HStem: -18 130<281.71 439.972> 0 21G<528 688> 479 130<262.3 350> 580 20G<505.067 688 838 998>
VStem: 42 150<203.6 403.954> 528 160<0 100 230 470> 838 160<121 600>
LayerCount: 2
Fore
SplineSet
350 609 m 1xae
 442 525 l 1
 528 600 l 1
 688 600 l 1
 688 380 l 1
 688 230 l 1
 838 121 l 1
 838 600 l 1
 998 600 l 1
 998 90 l 1
 998 90 947 -9 838 -9 c 1
 688 100 l 1
 688 0 l 1
 528 0 l 1x5e
 528 350 l 1
 528 470 l 1
 442 400 l 1
 350 479 l 1
 257 479 192 414 192 300 c 0
 192 186 277 112 370 112 c 0xae
 401 112 440 125 440 125 c 1
 440 0 l 1x4e
 440 0 401 -18 350 -18 c 0
 164 -18 42 124 42 300 c 0
 42 476 164 609 350 609 c 1xae
EndSplineSet
EndChar

StartChar: uni0E0C
Encoding: 3596 3596 95
Width: 1000
VWidth: 0
Flags: W
HStem: -18 21G<266.768 295.797> 0 21G<470 630> 488 130<223.893 427.235> 580 20G<780 940>
VStem: 60 160<163.771 474> 470 160<0 100 230 440.758> 780 160<121 600>
LayerCount: 2
Fore
SplineSet
345 618 m 0xae
 472 618 630 556 630 380 c 2
 630 230 l 1
 780 121 l 1
 780 600 l 1
 940 600 l 1
 940 90 l 1
 940 90 889 -9 780 -9 c 1
 630 100 l 1
 630 0 l 1
 470 0 l 1x5e
 470 350 l 2
 470 454 416 488 345 488 c 0
 244 488 220 460 220 460 c 1
 220 230 l 2
 220 134 330 120 330 120 c 1
 290 -18 l 1
 290 -18 60 2 60 180 c 2
 60 520 l 1
 60 520 152 618 345 618 c 0xae
EndSplineSet
EndChar

StartChar: uni0E09
Encoding: 3593 3593 96
Width: 710
VWidth: 0
Flags: W
HStem: -18 120<276.639 401.821> 0 21G<500 650> 504 120<256.434 452.953>
VStem: 102 150<125.268 300> 500 150<0 110 188.869 459.965>
LayerCount: 2
Back
SplineSet
340 624 m 4xb8
 516 624 648 516 648 330 c 6
 648 0 l 5
 498 0 l 5x78
 498 110 l 5
 487 74 428 -18 293 -18 c 4
 198 -18 110 19 110 180 c 6
 110 300 l 5
 260 300 l 5
 260 240 l 6
 260 132 280 102 353 102 c 4
 416 102 497 176 498 280 c 5
 498 330 l 6
 498 434 433 494 340 494 c 4
 280 494 222 453 203 400 c 5
 42 400 l 5
 74 527 199 624 340 624 c 4xb8
EndSplineSet
Fore
SplineSet
355 624 m 4xb8
 507 624 650 552 650 410 c 2
 650 0 l 1
 500 0 l 1x78
 500 110 l 1
 489 74 425 -18 290 -18 c 0
 195 -18 102 19 102 180 c 2
 102 300 l 1
 252 300 l 1
 252 240 l 2
 252 132 277 102 350 102 c 0
 413 102 499 176 500 280 c 1
 500 410 l 2
 500 461 432 504 355 504 c 4
 278 504 210 464 210 410 c 1
 50 410 l 1
 50 549 203 624 355 624 c 4xb8
EndSplineSet
EndChar

StartChar: B
Encoding: 66 66 97
Width: 820
VWidth: 0
Flags: W
HStem: 0 140<230 559.669> 370 140<230 520.986> 730 130<230 525.416>
VStem: 60 170<140 370 510 730> 570 170<557.832 690.304> 610 170<181.692 325>
LayerCount: 2
Fore
SplineSet
60 0 m 5xf4
 60 860 l 5
 410 860 l 6
 617 860 740 787 740 625 c 4xf8
 740 555 693 478 630 450 c 5
 738 429 780 325 780 245 c 4
 780 105 693 0 530 0 c 6
 60 0 l 5xf4
230 370 m 5
 230 140 l 5
 440 140 l 6
 519 140 610 161 610 245 c 4xf4
 610 351 533 370 430 370 c 6
 230 370 l 5
230 510 m 5
 420 510 l 6
 529 510 570 573 570 625 c 4xf8
 570 703 505 730 400 730 c 6
 230 730 l 5
 230 510 l 5
EndSplineSet
EndChar

StartChar: period
Encoding: 46 46 98
Width: 300
VWidth: 0
Flags: W
HStem: 0 200<72.4561 207.544>
VStem: 40 200<32.4561 167.544>
LayerCount: 2
Fore
SplineSet
240 100 m 0
 240 44 196 0 140 0 c 0
 84 0 40 44 40 100 c 0
 40 156 84 200 140 200 c 0
 196 200 240 156 240 100 c 0
EndSplineSet
EndChar

StartChar: x
Encoding: 120 120 99
Width: 650
VWidth: 0
Flags: W
HStem: 0 21G<20 212.821 437.179 630> 580 20G<50 230.769 419.231 600>
LayerCount: 2
Fore
SplineSet
235 300 m 1
 50 600 l 1
 220 600 l 1
 325 405 l 1
 430 600 l 1
 600 600 l 1
 415 300 l 1
 630 0 l 1
 450 0 l 1
 325 195 l 5
 200 0 l 1
 20 0 l 1
 235 300 l 1
EndSplineSet
EndChar

StartChar: i
Encoding: 105 105 100
Width: 300
VWidth: 0
Flags: W
HStem: 0 21G<70 230> 580 20G<70 230> 720 200<82.4561 217.544>
VStem: 50 200<752.456 887.544> 70 160<0 600>
LayerCount: 2
Fore
SplineSet
250 820 m 0xf0
 250 764 206 720 150 720 c 0
 94 720 50 764 50 820 c 0
 50 876 94 920 150 920 c 0
 206 920 250 876 250 820 c 0xf0
70 600 m 1xe8
 230 600 l 1
 230 0 l 1
 70 0 l 1
 70 600 l 1xe8
EndSplineSet
EndChar

StartChar: o
Encoding: 111 111 101
Width: 720
VWidth: 0
Flags: W
HStem: -18 130<278.341 441.659> 488 130<278.341 441.659>
VStem: 42 150<203.869 396.131> 528 150<203.869 396.131>
LayerCount: 2
Fore
SplineSet
360 618 m 4
 536 618 678 476 678 300 c 4
 678 124 536 -18 360 -18 c 4
 184 -18 42 124 42 300 c 4
 42 476 184 618 360 618 c 4
360 488 m 4
 267 488 192 404 192 300 c 4
 192 196 267 112 360 112 c 4
 453 112 528 196 528 300 c 4
 528 404 453 488 360 488 c 4
EndSplineSet
EndChar

StartChar: O
Encoding: 79 79 102
Width: 980
VWidth: 0
Flags: W
HStem: -18 140<378.832 601.168> 738 140<378.832 601.168>
VStem: 42 170<300.114 559.886> 768 170<300.114 559.886>
LayerCount: 2
Fore
SplineSet
490 878 m 4
 737 878 938 677 938 430 c 4
 938 183 737 -18 490 -18 c 4
 243 -18 42 183 42 430 c 4
 42 677 243 878 490 878 c 4
490 738 m 4
 331 738 212 600 212 430 c 4
 212 260 331 122 490 122 c 4
 649 122 768 260 768 430 c 4
 768 600 649 738 490 738 c 4
EndSplineSet
EndChar

StartChar: I
Encoding: 73 73 103
Width: 310
VWidth: 0
Flags: W
HStem: 0 21G<70 240> 840 20G<70 240>
VStem: 70 170<0 860>
LayerCount: 2
Fore
SplineSet
70 860 m 1
 240 860 l 1
 240 0 l 1
 70 0 l 1
 70 860 l 1
EndSplineSet
EndChar

StartChar: X
Encoding: 88 88 104
Width: 810
VWidth: 0
Flags: W
HStem: 0 21G<20 222.581 578.065 790> 840 20G<50 250.82 559.18 760>
LayerCount: 2
Fore
SplineSet
50 860 m 1
 240 860 l 1
 405 555 l 1
 570 860 l 1
 760 860 l 1
 505 440 l 1
 790 0 l 1
 590 0 l 1
 405 310 l 1
 210 0 l 1
 20 0 l 1
 305 440 l 1
 50 860 l 1
EndSplineSet
EndChar

StartChar: H
Encoding: 72 72 105
Width: 840
VWidth: 0
Flags: W
HStem: 0 21G<60 230 600 780> 370 140<230 600> 840 20G<60 230 600 780>
VStem: 60 170<0 370 510 860> 600 180<0 370 510 860>
LayerCount: 2
Fore
SplineSet
60 860 m 1
 230 860 l 1
 230 510 l 5
 600 510 l 5
 600 860 l 1
 780 860 l 1
 780 0 l 1
 600 0 l 1
 600 370 l 5
 230 370 l 5
 230 0 l 1
 60 0 l 1
 60 860 l 1
EndSplineSet
EndChar

StartChar: P
Encoding: 80 80 106
Width: 780
VWidth: 0
Flags: W
HStem: 0 21G<60 230> 300 140<230 506.684> 720 140<230 506.061>
VStem: 60 170<0 300 440 720> 570 170<497.068 662.932>
LayerCount: 2
Fore
SplineSet
60 860 m 1
 420 860 l 2
 641 860 740 731 740 580 c 0
 740 429 643 300 420 300 c 1
 230 300 l 1
 230 0 l 1
 60 0 l 1
 60 860 l 1
230 720 m 1
 230 440 l 1
 390 440 l 2
 521 440 570 496 570 580 c 0
 570 664 515 720 390 720 c 2
 230 720 l 1
EndSplineSet
EndChar

StartChar: K
Encoding: 75 75 108
Width: 790
VWidth: 0
Flags: W
HStem: 0 21G<60 230 543.077 770> 840 20G<60 230 494.658 700>
VStem: 60 170<0 390 495 860>
LayerCount: 2
Fore
SplineSet
510 860 m 1
 700 860 l 1
 380 450 l 5
 770 0 l 1
 560 0 l 1
 230 390 l 1
 230 0 l 1
 60 0 l 1
 60 860 l 1
 230 860 l 1
 230 495 l 1
 510 860 l 1
EndSplineSet
EndChar

StartChar: j
Encoding: 106 106 109
Width: 300
VWidth: 0
Flags: W
HStem: -340 140<-30 32.2773> 580 20G<70 230> 720 200<82.4561 217.544>
VStem: 50 200<752.456 887.544> 70 160<-159.298 600>
LayerCount: 2
Fore
SplineSet
70 600 m 1xe8
 230 600 l 1
 230 0 l 1
 230 -40 l 2
 230 -246 148 -340 -30 -340 c 1
 -30 -200 l 1
 36 -200 70 -154 70 -40 c 2
 70 0 l 1
 70 600 l 1xe8
250 820 m 0xf0
 250 764 206 720 150 720 c 0
 94 720 50 764 50 820 c 0
 50 876 94 920 150 920 c 0
 206 920 250 876 250 820 c 0xf0
EndSplineSet
EndChar

StartChar: D
Encoding: 68 68 110
Width: 890
VWidth: 0
Flags: W
HStem: 0 140<230 500.075> 720 140<230 500.075>
VStem: 60 170<140 720> 660 170<299.838 560.162>
LayerCount: 2
Fore
SplineSet
60 860 m 1
 60 860 287 860 400 860 c 0
 647 860 830 697 830 430 c 0
 830 163 647 0 400 0 c 0
 60 0 l 1
 60 860 l 1
230 720 m 1
 230 140 l 1
 370 140 l 2
 529 140 660 240 660 430 c 0
 660 620 529 720 370 720 c 2
 230 720 l 1
EndSplineSet
EndChar

StartChar: E
Encoding: 69 69 111
Width: 730
VWidth: 0
Flags: W
HStem: 0 140<230 700> 370 140<230 620> 720 140<230 680>
VStem: 60 170<140 370 510 720>
LayerCount: 2
Fore
SplineSet
60 860 m 1
 680 860 l 1
 680 720 l 1
 230 720 l 1
 230 510 l 1
 620 510 l 1
 620 370 l 1
 230 370 l 1
 230 140 l 1
 700 140 l 1
 700 0 l 1
 60 0 l 1
 60 860 l 1
EndSplineSet
EndChar

StartChar: L
Encoding: 76 76 112
Width: 560
VWidth: 0
Flags: W
HStem: 0 140<230 520> 840 20G<60 230>
VStem: 60 170<140 860>
LayerCount: 2
Fore
SplineSet
60 860 m 5
 230 860 l 5
 230 140 l 5
 520 140 l 5
 520 0 l 5
 60 0 l 5
 60 860 l 5
EndSplineSet
EndChar

StartChar: F
Encoding: 70 70 113
Width: 720
VWidth: 0
Flags: W
HStem: 0 21G<60 230> 370 140<230 620> 720 140<230 680>
VStem: 60 170<0 370 510 720>
LayerCount: 2
Fore
SplineSet
230 0 m 1
 60 0 l 1
 60 860 l 1
 680 860 l 1
 680 720 l 1
 230 720 l 1
 230 510 l 1
 620 510 l 1
 620 370 l 1
 230 370 l 1
 230 0 l 1
EndSplineSet
EndChar

StartChar: J
Encoding: 74 74 114
Width: 560
VWidth: 0
Flags: W
HStem: -18 140<208.922 311.078> 840 20G<330 500>
VStem: 330 170<141.596 860>
LayerCount: 2
Fore
SplineSet
330 860 m 5
 500 860 l 5
 500 202 l 6
 500 80 399 -18 260 -18 c 4
 121 -18 20 80 20 202 c 5
 190 202 l 5
 190 158 221 122 260 122 c 4
 299 122 330 158 330 202 c 6
 330 860 l 5
EndSplineSet
EndChar

StartChar: T
Encoding: 84 84 115
Width: 620
VWidth: 0
Flags: W
HStem: 0 21G<225 395> 720 140<40 225 395 580>
VStem: 225 170<0 720>
LayerCount: 2
Fore
SplineSet
40 860 m 1
 580 860 l 1
 580 720 l 1
 395 720 l 1
 395 0 l 1
 225 0 l 1
 225 720 l 1
 40 720 l 1
 40 860 l 1
EndSplineSet
EndChar

StartChar: N
Encoding: 78 78 116
Width: 840
VWidth: 0
Flags: W
HStem: 0 21G<60 230 569.062 780> 840 20G<60 270.938 610 780>
VStem: 60 170<0 640> 610 170<220 860>
LayerCount: 2
Fore
SplineSet
60 860 m 1
 260 860 l 1
 610 220 l 1
 610 860 l 1
 780 860 l 1
 780 0 l 1
 580 0 l 1
 230 640 l 1
 230 0 l 1
 60 0 l 1
 60 860 l 1
EndSplineSet
EndChar

StartChar: M
Encoding: 77 77 117
Width: 1000
VWidth: 0
Flags: W
HStem: 0 21G<60 230 428.492 571.508 770 940> 840 20G<60 306.452 693.548 940>
VStem: 60 170<0 630> 770 170<0 630>
LayerCount: 2
Fore
SplineSet
435 0 m 1
 230 630 l 1
 230 0 l 1
 60 0 l 1
 60 860 l 1
 300 860 l 1
 500 240 l 1
 700 860 l 1
 940 860 l 1
 940 0 l 1
 770 0 l 1
 770 630 l 1
 565 0 l 1
 435 0 l 1
EndSplineSet
EndChar

StartChar: U
Encoding: 85 85 118
Width: 860
VWidth: 0
Flags: W
HStem: -18 140<324.206 535.794> 840 20G<60 235 625 800>
VStem: 60 175<225.252 860> 625 175<225.252 860>
LayerCount: 2
Fore
SplineSet
60 860 m 1
 235 860 l 1
 235 370 l 2
 235 218 286 122 430 122 c 0
 574 122 625 218 625 370 c 2
 625 860 l 1
 800 860 l 1
 800 330 l 2
 800 111 650 -18 430 -18 c 0
 210 -18 60 111 60 330 c 2
 60 860 l 1
EndSplineSet
EndChar

StartChar: R
Encoding: 82 82 120
Width: 790
VWidth: 0
Flags: W
HStem: 0 21G<60 230 595.556 780> 330 140<230 485.413> 720 140<230 509.396>
VStem: 60 170<0 330 470 720> 560 170<46.832 262.007 521.096 672.006>
LayerCount: 2
Fore
SplineSet
60 860 m 1
 390 860 l 2
 584 860 730 788 730 610 c 0
 730 524 674 430 580 400 c 1
 671 383 730 289 730 180 c 0
 730 71 780 0 780 0 c 5
 600 0 l 5
 600 0 560 50 560 180 c 0
 560 294 453 330 370 330 c 2
 230 330 l 1
 230 0 l 1
 60 0 l 1
 60 860 l 1
230 720 m 1
 230 470 l 1
 390 470 l 2
 477 470 560 508 560 590 c 0
 560 672 515 720 390 720 c 2
 230 720 l 1
EndSplineSet
EndChar

StartChar: V
Encoding: 86 86 121
Width: 840
VWidth: 0
Flags: W
HStem: 0 21G<322.791 517.209> 840 20G<20 216.462 623.538 820>
LayerCount: 2
Fore
SplineSet
20 860 m 1
 210 860 l 5
 420 210 l 1
 630 860 l 1
 820 860 l 1
 510 0 l 1
 330 0 l 1
 20 860 l 1
EndSplineSet
EndChar

StartChar: Y
Encoding: 89 89 122
Width: 800
VWidth: 0
Flags: W
HStem: 0 21G<315 485> 840 20G<20 209.756 590.244 780>
VStem: 315 170<0 280>
LayerCount: 2
Fore
SplineSet
20 860 m 1
 200 860 l 1
 400 450 l 5
 600 860 l 1
 780 860 l 1
 485 280 l 5
 485 0 l 1
 315 0 l 1
 315 280 l 5
 20 860 l 1
EndSplineSet
EndChar

StartChar: A
Encoding: 65 65 123
Width: 880
VWidth: 0
Flags: W
HStem: 0 21G<20 207.778 672.222 860> 180 140<315 565> 840 20G<352.093 527.907>
LayerCount: 2
Fore
SplineSet
360 860 m 1
 520 860 l 1
 860 0 l 1
 680 0 l 1
 610 180 l 1
 270 180 l 1
 200 0 l 1
 20 0 l 1
 360 860 l 1
440 650 m 1
 315 320 l 1
 565 320 l 1
 440 650 l 1
EndSplineSet
EndChar

StartChar: Q
Encoding: 81 81 124
Width: 996
VWidth: 0
Flags: W
HStem: -18 140<378.832 597.918> 738 140<378.832 601.168>
VStem: 42 170<300.114 559.886> 768 170<298.803 559.886>
LayerCount: 2
Fore
SplineSet
490 878 m 0
 737 878 938 677 938 430 c 0
 938 323 901 225 838 148 c 1
 986 0 l 1
 866 -120 l 1
 708 39 l 1
 643 3 569 -18 490 -18 c 0
 243 -18 42 183 42 430 c 0
 42 677 243 878 490 878 c 0
490 738 m 0
 331 738 212 600 212 430 c 0
 212 260 331 122 490 122 c 0
 530 122 567 131 600 146 c 1
 442 304 l 1
 562 424 l 1
 724 262 l 1
 752 310 768 368 768 430 c 0
 768 600 649 738 490 738 c 0
EndSplineSet
EndChar

StartChar: Z
Encoding: 90 90 125
Width: 770
VWidth: 0
Flags: W
HStem: 0 150<255 725> 710 150<75 495>
LayerCount: 2
Fore
SplineSet
75 860 m 1
 705 860 l 1
 705 735 l 1
 255 150 l 1
 725 150 l 1
 725 0 l 1
 45 0 l 1
 45 130 l 1
 495 710 l 1
 75 710 l 1
 75 860 l 1
EndSplineSet
EndChar

StartChar: W
Encoding: 87 87 126
Width: 1170
VWidth: 0
Flags: W
HStem: 0 21G<244.884 469.528 700.472 925.116> 840 20G<30 224.375 500.469 669.531 945.625 1140>
LayerCount: 2
Fore
SplineSet
505 860 m 1
 665 860 l 1
 810 220 l 1
 950 860 l 1
 1140 860 l 1
 920 0 l 1
 705 0 l 1
 585 530 l 1
 465 0 l 1
 250 0 l 1
 30 860 l 1
 220 860 l 1
 360 220 l 1
 505 860 l 1
EndSplineSet
EndChar

StartChar: S
Encoding: 83 83 127
Width: 820
VWidth: 0
Flags: W
HStem: -18 140<293.666 542.924> 738 140<297.567 509.715>
VStem: 45 170<194.169 280> 55 170<551.879 673.42> 575 180<590 675.992> 605 170<174.653 304.933>
LayerCount: 2
Fore
SplineSet
400 878 m 0xd4
 629 878 755 750 755 590 c 1
 575 590 l 1
 575 680 518 738 400 738 c 0
 293 738 225 672 225 610 c 0xd8
 225 544 294.749 514.287 410 500 c 0
 619.469 474.033 775 428 775 240 c 0
 775 53 624 -18 410 -18 c 0
 193 -18 45 77 45 280 c 1
 215 280 l 1xe4
 215 169 307 122 410 122 c 0
 511 122 605 153 605 240 c 0
 605 327 519.632 355.501 370 370 c 0
 204.593 386.027 55 441 55 610 c 0
 55 725 171 878 400 878 c 0xd4
EndSplineSet
EndChar

StartChar: u
Encoding: 117 117 128
Width: 700
VWidth: 0
Flags: W
HStem: -18 130<270.315 393.71> 0 21G<480 640> 580 20G<60 220 480 640>
VStem: 60 160<164.377 600> 480 160<0 110 174.664 600>
LayerCount: 2
Fore
SplineSet
640 0 m 5x78
 480 0 l 5x78
 480 110 l 5
 464 74 420 -18 290 -18 c 4
 165 -18 60 53 60 214 c 6
 60 600 l 5
 220 600 l 5
 220 252 l 6
 220 144 292 112 350 112 c 4xb8
 423 112 480 176 480 280 c 6
 480 600 l 5
 640 600 l 5
 640 0 l 5x78
EndSplineSet
EndChar

StartChar: C
Encoding: 67 67 129
Width: 964
VWidth: 0
Flags: W
HStem: -18 140<378.832 610.939> 738 140<378.832 610.939>
VStem: 42 170<300.114 559.886>
LayerCount: 2
Fore
SplineSet
490 878 m 0
 715 878 874 739 922 550 c 1
 745 550 l 1
 707 660 629 738 490 738 c 0
 331 738 212 600 212 430 c 0
 212 260 331 122 490 122 c 0
 629 122 707 200 745 310 c 1
 922 310 l 1
 874 121 715 -18 490 -18 c 0
 243 -18 42 183 42 430 c 0
 42 677 243 878 490 878 c 0
EndSplineSet
EndChar

StartChar: d
Encoding: 100 100 130
Width: 738
VWidth: 0
Flags: W
HStem: -18 130<281.71 452.918> 0 21G<528 678> 488 130<281.71 452.918> 940 20G<528 678>
VStem: 42 150<203.6 396.4> 528 150<0 80 188.469 411.531 520 960>
LayerCount: 2
Fore
SplineSet
678 0 m 5x7c
 528 0 l 5x7c
 528 80 l 5
 512 43 444 -18 350 -18 c 4xbc
 164 -18 42 124 42 300 c 4
 42 476 164 618 350 618 c 4
 444 618 512 557 528 520 c 5
 528 960 l 5
 678 960 l 5
 678 0 l 5x7c
370 488 m 4
 277 488 192 414 192 300 c 4
 192 186 277 112 370 112 c 4xbc
 459 112 528 185 528 280 c 6
 528 320 l 6
 528 415 459 488 370 488 c 4
EndSplineSet
EndChar

StartChar: G
Encoding: 71 71 131
Width: 980
VWidth: 0
Flags: W
HStem: -18 140<378.832 615.72> 330 120<538 762> 738 140<378.832 610.939>
VStem: 42 170<300.114 559.886>
LayerCount: 2
Fore
SplineSet
490 878 m 4
 715 878 874 739 922 550 c 5
 745 550 l 5
 707 660 629 738 490 738 c 4
 331 738 212 600 212 430 c 4
 212 260 331 122 490 122 c 4
 636 122 744 209 762 330 c 5
 538 330 l 5
 538 450 l 5
 938 450 l 5
 938 430 l 6
 938 183 767 -18 490 -18 c 4
 243 -18 42 183 42 430 c 4
 42 677 243 878 490 878 c 4
EndSplineSet
EndChar

StartChar: g
Encoding: 103 103 132
Width: 738
VWidth: 0
Flags: W
HStem: -340 130<269.231 442.678> -18 130<281.71 452.918> 488 130<281.71 452.918> 580 20G<528 678>
VStem: 42 150<203.6 396.4> 528 150<-123.061 80 188.469 411.531 520 600>
LayerCount: 2
Fore
SplineSet
350 618 m 0xec
 444 618 512 557 528 520 c 1
 528 600 l 1
 678 600 l 1xdc
 678 -22 l 2
 678 -198 536 -340 360 -340 c 0
 219 -340 90 -249 58 -122 c 1
 218 -122 l 1
 239 -175 290 -210 360 -210 c 0
 447 -210 519 -137 528 -42 c 1
 528 80 l 1
 512 43 444 -18 350 -18 c 0
 164 -18 42 124 42 300 c 0
 42 476 164 618 350 618 c 0xec
370 488 m 0xec
 277 488 192 414 192 300 c 0
 192 186 277 112 370 112 c 0
 459 112 528 185 528 280 c 2
 528 320 l 2
 528 415 459 488 370 488 c 0xec
EndSplineSet
EndChar

StartChar: l
Encoding: 108 108 133
Width: 300
VWidth: 0
Flags: W
HStem: 0 21G<70 230> 940 20G<70 230>
VStem: 70 160<0 960>
LayerCount: 2
Fore
SplineSet
70 960 m 1
 230 960 l 1
 230 0 l 1
 70 0 l 1
 70 960 l 1
EndSplineSet
EndChar

StartChar: m
Encoding: 109 109 135
Width: 980
VWidth: 0
Flags: W
HStem: 0 21G<60 220 410 570 760 920> 488 130<283.986 379.971 608.729 728.829> 580 20G<60 220>
VStem: 60 160<0 448.284 510 600> 410 160<0 452.093> 760 160<0 454.949>
CounterMasks: 1 1c
LayerCount: 2
Fore
SplineSet
375 618 m 0xdc
 458 618 513 578 545 510 c 1
 573 577 617 618 715 618 c 0
 840 618 920 547 920 386 c 2
 920 0 l 1
 760 0 l 1
 760 348 l 2
 760 456 723 488 665 488 c 0
 592 488 570 424 570 320 c 2
 570 0 l 1
 410 0 l 1
 410 348 l 2
 410 456 373 488 315 488 c 0xdc
 247 488 220 424 220 320 c 2
 220 0 l 1
 60 0 l 1
 60 600 l 1
 220 600 l 1xbc
 220 510 l 1
 236 546 271 618 375 618 c 0xdc
EndSplineSet
EndChar

StartChar: a
Encoding: 97 97 137
Width: 738
VWidth: 0
Flags: W
HStem: -18 130<281.71 452.918> 0 21G<528 678> 488 130<281.71 452.918> 580 20G<528 678>
VStem: 42 150<203.6 396.4> 528 150<0 80 188.469 411.531 520 600>
LayerCount: 2
Fore
SplineSet
678 0 m 1x5c
 528 0 l 1x5c
 528 80 l 1
 512 43 444 -18 350 -18 c 0
 164 -18 42 124 42 300 c 0
 42 476 164 618 350 618 c 0xac
 444 618 512 557 528 520 c 1
 528 600 l 5
 678 600 l 5
 678 0 l 1x5c
370 488 m 0xac
 277 488 192 414 192 300 c 0
 192 186 277 112 370 112 c 0
 459 112 528 185 528 280 c 2
 528 320 l 2
 528 415 459 488 370 488 c 0xac
EndSplineSet
EndChar

StartChar: h
Encoding: 104 104 138
Width: 700
VWidth: 0
Flags: W
HStem: 0 20<60 220 480 640> 488 130<306.29 429.685> 579 21<60 220> 600 21G<60 220> 940 20G<60 220>
VStem: 60 160<0 425.336 490 600 600 960> 480 160<0 435.623>
LayerCount: 2
Fore
SplineSet
60 960 m 1xae
 220 960 l 1
 220 600 l 5
 60 600 l 5
 60 960 l 1xae
EndSplineSet
Refer: 134 110 N 1 0 0 1 0 0 2
EndChar

StartChar: e
Encoding: 101 101 139
Width: 720
VWidth: 0
Flags: W
HStem: -18 130<277.47 450.769> 280 100<208 512> 488 130<272.978 448.887>
LayerCount: 2
Fore
SplineSet
360 618 m 4
 536 618 678 476 678 300 c 6
 678 280 l 5
 193 280 l 5
 202 185 273 112 360 112 c 4
 430 112 481 147 502 200 c 5
 662 200 l 5
 630 73 501 -18 360 -18 c 4
 184 -18 42 124 42 300 c 4
 42 476 184 618 360 618 c 4
360 488 m 4
 293 488 225 444 208 380 c 5
 512 380 l 5
 494 444 437 488 360 488 c 4
EndSplineSet
EndChar

StartChar: c
Encoding: 99 99 140
Width: 690
VWidth: 0
Flags: W
HStem: -18 130<278.341 444.721> 488 130<278.341 444.721>
VStem: 42 150<203.869 396.131>
LayerCount: 2
Fore
SplineSet
360 618 m 4
 501 618 626 527 658 400 c 5
 497 400 l 5
 478 453 420 488 360 488 c 4
 267 488 192 404 192 300 c 4
 192 196 267 112 360 112 c 4
 420 112 478 147 497 200 c 5
 658 200 l 5
 626 73 501 -18 360 -18 c 4
 184 -18 42 124 42 300 c 4
 42 476 184 618 360 618 c 4
EndSplineSet
EndChar

StartChar: w
Encoding: 119 119 141
Width: 860
VWidth: 0
Flags: W
HStem: 0 21G<165 349.857 500.714 695> 580 20G<20 194.286 370.476 489.524 665.714 840>
LayerCount: 2
Fore
SplineSet
20 600 m 5
 190 600 l 5
 280 180 l 5
 375 600 l 5
 485 600 l 5
 580 180 l 5
 670 600 l 5
 840 600 l 5
 690 0 l 5
 505 0 l 5
 430 350 l 5
 345 0 l 5
 170 0 l 5
 20 600 l 5
EndSplineSet
EndChar

StartChar: v
Encoding: 118 118 142
Width: 640
VWidth: 0
Flags: W
HStem: 0 21G<223 417> 580 20G<20 191 449 620>
LayerCount: 2
Fore
SplineSet
20 600 m 5
 185 600 l 5
 320 150 l 1
 455 600 l 1
 620 600 l 1
 410 0 l 1
 230 0 l 1
 20 600 l 5
EndSplineSet
EndChar

StartChar: z
Encoding: 122 122 143
Width: 600
VWidth: 0
Flags: W
HStem: 0 130<220 570> 470 130<50 360>
LayerCount: 2
Fore
SplineSet
50 600 m 5
 550 600 l 5
 550 470 l 5
 220 130 l 5
 570 130 l 5
 570 0 l 5
 30 0 l 5
 30 130 l 5
 360 470 l 5
 50 470 l 5
 50 600 l 5
EndSplineSet
EndChar

StartChar: y
Encoding: 121 121 144
Width: 670
VWidth: 0
Flags: W
HStem: 580 20G<20 197.209 473.721 650>
LayerCount: 2
Fore
SplineSet
20 600 m 1
 190 600 l 1
 345 170 l 1
 480 600 l 1
 650 600 l 1
 300 -340 l 1
 130 -340 l 1
 270 0 l 1
 20 600 l 1
EndSplineSet
EndChar

StartChar: r
Encoding: 114 114 145
Width: 480
VWidth: 0
Flags: W
HStem: 0 21G<60 220> 468 150<355.844 450> 580 20G<60 220>
VStem: 60 160<0 331.58 450 600>
LayerCount: 2
Fore
SplineSet
450 468 m 1xd0
 312 468 220 342 220 220 c 2
 220 0 l 1
 60 0 l 1
 60 600 l 1
 220 600 l 1xb0
 220 450 l 1
 234 505 337 618 450 618 c 1
 450 468 l 1xd0
EndSplineSet
EndChar

StartChar: numbersign
Encoding: 35 35 146
Width: 930
VWidth: 0
Flags: W
HStem: 270 110<40 178 362 453 637 870> 510 110<40 256 440 531 715 870> 940 20G<391.353 553 666.353 828>
LayerCount: 2
Fore
SplineSet
398 960 m 1
 553 960 l 1
 440 620 l 1
 560 620 l 1
 673 960 l 1
 828 960 l 1
 715 620 l 1
 870 620 l 1
 870 510 l 1
 686 510 l 1
 637 380 l 1
 870 380 l 1
 870 270 l 1
 608 270 l 1
 472 -140 l 1
 317 -140 l 1
 453 270 l 1
 333 270 l 1
 197 -140 l 1
 42 -140 l 1
 178 270 l 1
 40 270 l 1
 40 380 l 1
 207 380 l 1
 256 510 l 1
 40 510 l 1
 40 620 l 1
 285 620 l 1
 398 960 l 1
411 510 m 1
 362 380 l 1
 482 380 l 1
 531 510 l 1
 411 510 l 1
EndSplineSet
EndChar

StartChar: asterisk
Encoding: 42 42 147
Width: 460
VWidth: 0
Flags: W
HStem: 855 20G<156 260>
VStem: 156 104<733 875>
LayerCount: 2
Fore
SplineSet
156 875 m 5
 260 875 l 5
 260 733 l 1
 395 777 l 1
 425 678 l 1
 292 634 l 1
 375 520 l 1
 292 459 l 1
 208 574 l 1
 124 459 l 1
 41 520 l 1
 124 634 l 1
 -10 678 l 1
 21 777 l 1
 156 733 l 1
 156 875 l 5
EndSplineSet
EndChar

StartChar: s
Encoding: 115 115 148
Width: 664
VWidth: 0
Flags: W
HStem: -18 120<248.669 427.795> 498 120<227.336 412.701>
VStem: 52 150<384.338 470.783> 462 160<134.681 224.643>
LayerCount: 2
Fore
SplineSet
322 618 m 4
 475 618 602 530 602 410 c 5
 442 410 l 5
 442 465 398 498 322 498 c 4
 254 498 202 468 202 430 c 4
 202 388 238.622 365.439 332 360 c 4
 435 354 622 323 622 180 c 4
 622 38 479 -18 332 -18 c 4
 185 -18 42 51 42 190 c 5
 212 190 l 5
 212 136 270 102 332 102 c 4
 394 102 462 129 462 180 c 4
 462 238 386 249 312 255 c 4
 223.336 262.189 52 299 52 430 c 4
 52 524 169 618 322 618 c 4
EndSplineSet
EndChar

StartChar: f
Encoding: 102 102 149
Width: 400
VWidth: 0
Flags: W
HStem: 0 21G<120 280> 500 100<20 120 280 380> 820 140<317.723 380>
VStem: 120 160<0 500 600 779.298>
LayerCount: 2
Fore
SplineSet
380 960 m 1
 380 820 l 1
 314 820 280 774 280 660 c 2
 280 600 l 1
 380 600 l 1
 380 500 l 1
 280 500 l 1
 280 0 l 1
 120 0 l 1
 120 500 l 1
 20 500 l 1
 20 600 l 1
 120 600 l 1
 120 660 l 2
 120 866 202 960 380 960 c 1
EndSplineSet
EndChar

StartChar: t
Encoding: 116 116 150
Width: 400
VWidth: 0
Flags: W
HStem: 0 21G<120 280> 500 100<20 120 280 380> 840 20G<120 280>
VStem: 120 160<0 500 600 860>
LayerCount: 2
Fore
SplineSet
280 860 m 1
 280 600 l 1
 380 600 l 1
 380 500 l 5
 280 500 l 5
 280 0 l 1
 120 0 l 1
 120 500 l 5
 20 500 l 5
 20 600 l 1
 120 600 l 1
 120 860 l 1
 280 860 l 1
EndSplineSet
EndChar

StartChar: k
Encoding: 107 107 151
Width: 640
VWidth: 0
Flags: W
HStem: 0 21G<60 220 446.667 620> 580 20G<413.519 590> 940 20G<60 220>
VStem: 60 160<0 140 330 960>
LayerCount: 2
Fore
SplineSet
60 960 m 1
 220 960 l 1
 220 330 l 1
 429 600 l 1
 590 600 l 1
 390 330 l 1
 620 0 l 1
 460 0 l 1
 300 240 l 5
 220 140 l 1
 220 0 l 1
 60 0 l 1
 60 960 l 1
EndSplineSet
EndChar

StartChar: hyphen
Encoding: 45 45 152
Width: 640
VWidth: 0
Flags: W
HStem: 270 110<40 580>
LayerCount: 2
Fore
SplineSet
40 380 m 1
 580 380 l 1
 580 270 l 1
 40 270 l 1
 40 380 l 1
EndSplineSet
EndChar

StartChar: bar
Encoding: 124 124 153
Width: 280
VWidth: 0
Flags: W
HStem: 940 20G<50 210>
VStem: 50 160<-340 960>
LayerCount: 2
Fore
SplineSet
50 960 m 1
 210 960 l 1
 210 -340 l 1
 50 -340 l 1
 50 960 l 1
EndSplineSet
EndChar

StartChar: slash
Encoding: 47 47 154
Width: 425
VWidth: 0
Flags: W
HStem: 940 20G<323.538 495>
LayerCount: 2
Fore
SplineSet
330 960 m 1
 495 960 l 1
 75 -340 l 1
 -90 -340 l 1
 330 960 l 1
EndSplineSet
EndChar

StartChar: backslash
Encoding: 92 92 156
Width: 425
VWidth: 0
Flags: W
HStem: 940 20G<-90 81.4615>
LayerCount: 2
Fore
SplineSet
75 960 m 1
 495 -340 l 1
 330 -340 l 1
 -90 960 l 1
 75 960 l 1
EndSplineSet
EndChar

StartChar: seven
Encoding: 55 55 157
Width: 660
Flags: W
HStem: 0 21G<200 380> 720 140<50 430>
VStem: 200 180<0 353.877>
LayerCount: 2
Fore
SplineSet
200 0 m 5
 200 180 l 6
 200 480 430 720 430 720 c 5
 50 720 l 5
 50 860 l 5
 610 860 l 5
 610 720 l 5
 610 720 380 486 380 180 c 6
 380 0 l 5
 200 0 l 5
EndSplineSet
EndChar

StartChar: exclam
Encoding: 33 33 158
Width: 320
VWidth: 0
Flags: W
HStem: 0 200<92.4561 227.544> 940 20G<70 250>
VStem: 60 200<32.4561 167.544> 70 180<390 960>
LayerCount: 2
Fore
SplineSet
260 100 m 0xe0
 260 44 216 0 160 0 c 0
 104 0 60 44 60 100 c 0
 60 156 104 200 160 200 c 0
 216 200 260 156 260 100 c 0xe0
70 960 m 1xd0
 250 960 l 1
 250 390 l 1
 205 270 l 1
 115 270 l 1
 70 390 l 1
 70 960 l 1xd0
EndSplineSet
EndChar

StartChar: dollar
Encoding: 36 36 160
Width: 640
Flags: W
HStem: -10 114<233.038 265 355 387.596> 600 21G<419.5 590> 748 292<270.459 358.185>
VStem: 20 160<159.939 250> 50 160<558.051 711.472> 269 90<-180 -7.0224 858.258 1040> 420 170<600 703.43> 440 160<152.269 302.618>
LayerCount: 2
Fore
SplineSet
440 220 m 0xf5
 440 305 377 349 310 370 c 0
 178 411 50 504 50 632 c 0
 50 763 158 847 269 862 c 1
 269 1040 l 1
 359 1040 l 1
 359 862 l 1
 501 840 588 718 590 600 c 1
 420 600 l 1
 419 690 385 748 320 748 c 0
 255 748 210 706 210 632 c 0xee
 210 559 281 502 350 480 c 0
 481 439 600 347 600 220 c 0
 599 80 470 3 355 -10 c 1
 355 -180 l 1
 265 -180 l 1
 265 -10 l 1
 117 7 20 114 20 250 c 1
 180 250 l 1
 180 148 246 104 310 104 c 0
 374 104 440 152 440 220 c 0xf5
EndSplineSet
EndChar

StartChar: percent
Encoding: 37 37 161
Width: 980
VWidth: 0
Flags: W
HStem: 0 105<656.17 783.83> 295 105<656.17 783.83> 460 105<176.17 303.83> 755 105<176.17 303.83>
VStem: 40 105<596.17 723.83> 335 105<596.17 723.83> 520 105<136.17 263.83> 815 105<136.17 263.83>
LayerCount: 2
Fore
SplineSet
240 860 m 0
 350 860 440 770 440 660 c 0
 440 550 350 460 240 460 c 0
 130 460 40 550 40 660 c 0
 40 770 130 860 240 860 c 0
650 860 m 1
 800 860 l 1
 310 0 l 1
 160 0 l 1
 650 860 l 1
240 755 m 0
 188 755 145 712 145 660 c 0
 145 608 188 565 240 565 c 0
 292 565 335 608 335 660 c 0
 335 712 292 755 240 755 c 0
720 400 m 0
 830 400 920 310 920 200 c 0
 920 90 830 0 720 0 c 0
 610 0 520 90 520 200 c 0
 520 310 610 400 720 400 c 0
720 295 m 0
 668 295 625 252 625 200 c 0
 625 148 668 105 720 105 c 0
 772 105 815 148 815 200 c 0
 815 252 772 295 720 295 c 0
EndSplineSet
EndChar

StartChar: ampersand
Encoding: 38 38 162
Width: 804
VWidth: 0
Flags: W
HStem: -18 120<253.859 425.779> 0 21G<566.704 764> 773 105<288.795 401.523>
VStem: 40 160<153.981 318.179> 114 150<587.807 747.96> 417 150<628.313 758.29> 604 160<296.304 410>
LayerCount: 2
Fore
SplineSet
348 878 m 0xae
 459 878 567 801 567 697 c 0
 567 581 470 522 386 465 c 1
 555 251 l 1
 589 308 604 348 604 410 c 1
 764 410 l 1
 764 313 705 211 647 142 c 1
 764 0 l 1
 583 0 l 1x6e
 539 54 l 1
 471 6 414 -18 337 -18 c 0
 125 -18 40 84 40 224 c 0xb6
 40 334 138 430 214 480 c 1
 162 540 114 599 114 672 c 0
 114 806 237 878 348 878 c 0xae
350 773 m 0
 301 773 264 741 264 673 c 0
 264 626 280 597 310 560 c 1
 374 603 417 642 417 697 c 0
 417 746 390 773 350 773 c 0
281 376 m 1
 227 333 200 294 200 224 c 0
 200 160 256 102 337 102 c 0xb6
 413 102 461 155 461 155 c 1
 281 376 l 1
EndSplineSet
EndChar

StartChar: quotesingle
Encoding: 39 39 163
Width: 240
VWidth: 0
Flags: W
HStem: 680 280<60 160>
VStem: 40 140<749.6 960> 60 100<680 730.4>
LayerCount: 2
Fore
SplineSet
40 960 m 1xc0
 180 960 l 1
 180 800 l 1xc0
 160 680 l 1
 60 680 l 1xa0
 40 800 l 1
 40 960 l 1xc0
EndSplineSet
EndChar

StartChar: parenleft
Encoding: 40 40 164
Width: 490
VWidth: 0
Flags: W
VStem: 40 160<39.7466 670.253>
LayerCount: 2
Fore
SplineSet
450 1050 m 1
 450 980 l 1
 203 859 200 684 200 440 c 2
 200 270 l 2
 200 26 203 -149 450 -270 c 1
 450 -340 l 1
 147 -300 40 -33 40 270 c 2
 40 440 l 2
 40 743 147 1010 450 1050 c 1
EndSplineSet
EndChar

StartChar: parenright
Encoding: 41 41 165
Width: 490
VWidth: 0
Flags: W
VStem: 290 160<39.7466 670.253>
LayerCount: 2
Fore
SplineSet
40 1050 m 1
 343 1010 450 743 450 440 c 2
 450 270 l 2
 450 -33 343 -300 40 -340 c 1
 40 -270 l 1
 287 -149 290 26 290 270 c 2
 290 440 l 2
 290 684 287 859 40 980 c 1
 40 1050 l 1
EndSplineSet
EndChar

StartChar: plus
Encoding: 43 43 166
Width: 640
VWidth: 0
Flags: W
HStem: 270 110<40 230 390 580>
VStem: 230 160<75 270 380 575>
LayerCount: 2
Fore
SplineSet
230 575 m 1
 390 575 l 1
 390 380 l 1
 580 380 l 1
 580 270 l 1
 390 270 l 1
 390 75 l 1
 230 75 l 1
 230 270 l 1
 40 270 l 1
 40 380 l 1
 230 380 l 1
 230 575 l 1
EndSplineSet
EndChar

StartChar: comma
Encoding: 44 44 167
Width: 300
VWidth: 0
Flags: W
HStem: -150 350
VStem: 60 200<32.2561 167.544>
LayerCount: 2
Fore
SplineSet
160 200 m 0
 216 200 260 156 260 100 c 0
 260 -8 188 -96 120 -150 c 1
 30 -150 l 1
 63 -121 116 -51 134 3 c 1
 91 15 60 53 60 100 c 0
 60 156 104 200 160 200 c 0
EndSplineSet
EndChar

StartChar: zero
Encoding: 48 48 168
Width: 660
Flags: W
HStem: -18 140<263.694 401.901> 738 140<258.099 401.901>
VStem: 50 170<165.582 700.159> 440 170<159.841 700.159>
LayerCount: 2
Fore
SplineSet
330 878 m 0
 487 878 610 753 610 598 c 2
 610 262 l 2
 610 107 487 -18 330 -18 c 0
 173 -18 50 107 50 262 c 2
 50 598 l 2
 50 753 173 878 330 878 c 0
330 738 m 4
 243 738 220 677 220 578 c 2
 220 282 l 2
 220 183 253 122 330 122 c 0
 417 122 440 183 440 282 c 2
 440 578 l 2
 440 677 417 738 330 738 c 4
EndSplineSet
EndChar

StartChar: one
Encoding: 49 49 169
Width: 660
Flags: W
HStem: 0 21G<340 520> 560 120<110 215.205> 840 20G<325 520>
VStem: 340 180<0 653>
LayerCount: 2
Fore
SplineSet
325 860 m 1
 520 860 l 1
 520 0 l 1
 340 0 l 1
 340 653 l 5
 283 572 218 560 110 560 c 5
 110 680 l 1
 226 680 325 766 325 860 c 1
EndSplineSet
EndChar

StartChar: two
Encoding: 50 50 170
Width: 660
Flags: W
HStem: 0 140<275 615> 738 140<254.129 389.42>
VStem: 45 170<598 694.418> 430 170<518.863 692.858>
LayerCount: 2
Fore
SplineSet
325 878 m 4
 482 878 600 763 600 608 c 4
 600 496 519 398 478 352 c 5
 275 140 l 5
 615 140 l 5
 615 0 l 5
 55 0 l 5
 55 140 l 5
 275 364 l 5
 319 413 430 513 430 598 c 4
 430 677 393 738 325 738 c 4
 257 738 215 687 215 598 c 5
 45 598 l 5
 45 753 168 878 325 878 c 4
EndSplineSet
EndChar

StartChar: three
Encoding: 51 51 171
Width: 660
Flags: W
HStem: -18 140<242.595 407.405> 390 110<195 391.544> 748 130<254.629 395.371>
VStem: 45 170<628 710.477> 435 170<527.229 710.519> 445 170<159.618 331.455>
LayerCount: 2
Fore
SplineSet
325 878 m 4xf8
 473 878 605 772 605 628 c 4xf8
 605 516 556 469 495 445 c 5
 556 420 615 355 615 232 c 4
 615 88 491 -18 325 -18 c 4
 159 -18 35 88 35 232 c 5
 205 232 l 5
 205 161 252 122 325 122 c 4
 398 122 445 161 445 232 c 4xf4
 445 311 401 390 325 390 c 6
 195 390 l 5
 195 500 l 5
 325 500 l 6
 403 500 435 530 435 628 c 4
 435 699 393 748 325 748 c 4
 257 748 215 699 215 628 c 5
 45 628 l 5
 45 772 177 878 325 878 c 4xf8
EndSplineSet
EndChar

StartChar: four
Encoding: 52 52 172
Width: 660
Flags: W
HStem: 0 21G<370 530> 180 140<180 370 530 640> 840 20G<348.667 530>
VStem: 370 160<0 180 320 660>
LayerCount: 2
Fore
SplineSet
530 320 m 5
 640 320 l 5
 640 180 l 5
 530 180 l 5
 530 0 l 5
 370 0 l 5
 370 180 l 5
 20 180 l 5
 20 260 l 5
 360 860 l 5
 530 860 l 5
 530 320 l 5
180 320 m 5
 370 320 l 5
 370 660 l 5
 180 320 l 5
EndSplineSet
EndChar

StartChar: five
Encoding: 53 53 173
Width: 660
Flags: W
HStem: -18 140<257.198 396.271> 412 130<262.19 399.696> 730 130<250 570>
VStem: 440 170<165.171 366.344>
LayerCount: 2
Fore
SplineSet
130 860 m 1
 570 860 l 1
 570 730 l 1
 250 730 l 1
 208 473 l 1
 237 507 267 542 350 542 c 0
 507 542 610 417 610 262 c 0
 610 107 487 -18 330 -18 c 0
 153 -18 50 96 40 230 c 1
 210 230 l 1
 227 155 272 122 330 122 c 0
 402 122 440 183 440 262 c 0
 440 351 405 412 330 412 c 0
 270 412 253 378 240 350 c 5
 55 380 l 1
 130 860 l 1
EndSplineSet
EndChar

StartChar: eight
Encoding: 56 56 175
Width: 660
Flags: W
HStem: -18 140<249.972 410.243> 383 130<254.141 407.506> 748 130<255.525 400.142>
VStem: 30 170<171.323 330.054> 50 165<551.381 705.34> 445 165<550.389 704.282> 460 170<171.323 330.912>
LayerCount: 2
Fore
SplineSet
330 878 m 4xe8
 478 878 610 784 610 640 c 4xec
 610 557 551 480 490 455 c 5
 551 430 630 361 630 230 c 4
 630 86 507 -18 330 -18 c 4
 153 -18 30 86 30 230 c 4xf2
 30 349 109 430 170 455 c 5
 109 480 50 557 50 640 c 4
 50 784 182 878 330 878 c 4xe8
330 748 m 4
 268 748 215 705 215 630 c 4
 215 565 255 513 330 513 c 4
 404 513 445 560 445 630 c 4
 445 700 392 748 330 748 c 4
330 383 m 4
 250 383 200 319 200 250 c 4
 200 179 250 122 330 122 c 4
 411 122 460 179 460 250 c 4xf2
 460 321 410 383 330 383 c 4
EndSplineSet
EndChar

StartChar: nine
Encoding: 57 57 176
Width: 660
Flags: W
HStem: -18 140<259.244 400.539> 318 140<259.869 399.41> 738 140<258.809 400.539>
VStem: 50 170<165.582 262 499.979 696.021> 440 170<165.582 385 498.375 694.418>
LayerCount: 2
Fore
SplineSet
330 878 m 4
 487 878 610 753 610 598 c 6
 610 262 l 6
 610 107 487 -18 330 -18 c 4
 173 -18 50 107 50 262 c 5
 220 262 l 5
 220 183 253 122 330 122 c 4
 406 122 440 183 440 262 c 6
 440 385 l 5
 409 345 378 318 310 318 c 4
 153 318 50 443 50 598 c 4
 50 753 173 878 330 878 c 4
330 738 m 4
 251 738 220 677 220 598 c 4
 220 519 253 458 330 458 c 4
 408 458 440 519 440 598 c 4
 440 677 406 738 330 738 c 4
EndSplineSet
EndChar

StartChar: less
Encoding: 60 60 178
Width: 560
VWidth: 0
Flags: W
HStem: 590 20G<479.184 520>
LayerCount: 2
Fore
SplineSet
20 285 m 1
 20 365 l 1
 520 610 l 1
 520 470 l 1
 210 325 l 1
 520 180 l 1
 520 40 l 1
 20 285 l 1
EndSplineSet
EndChar

StartChar: greater
Encoding: 62 62 180
Width: 560
VWidth: 0
Flags: W
HStem: 590 20G<20 60.8163>
LayerCount: 2
Fore
SplineSet
520 285 m 1
 20 40 l 1
 20 180 l 1
 330 325 l 1
 20 470 l 1
 20 610 l 1
 520 365 l 1
 520 285 l 1
EndSplineSet
EndChar

StartChar: question
Encoding: 63 63 181
Width: 670
VWidth: 0
Flags: W
HStem: 0 200<272.456 407.544> 738 140<266.973 412.084>
VStem: 50 170<580 687.036> 240 200<32.4561 167.544> 260 150<280 363.493> 450 170<556.002 701.145>
LayerCount: 2
Fore
SplineSet
340 878 m 0xec
 518 878 620 745 620 630 c 0
 620 442 410 437 410 280 c 5
 260 280 l 5
 260 510 450 493 450 630 c 0
 450 676 419 738 340 738 c 0
 261 738 220 679 220 580 c 1
 50 580 l 1
 50 756 162 878 340 878 c 0xec
EndSplineSet
Refer: 98 46 N 1 0 0 1 200 0 2
EndChar

StartChar: at
Encoding: 64 64 182
Width: 1240
VWidth: 0
Flags: W
HStem: -340 130<466.965 860> -18 100<913.836 1004.77> -18 90<510.974 664.392> 548 90<510.974 665.195> 830 130<455.708 764.292>
VStem: 30 150<72.7989 559.233> 280 180<136.964 483.036> 720 180<135.016 484.984> 760 140<530 620> 1040 150<121.67 559.233>
LayerCount: 2
Fore
SplineSet
610 960 m 0xdf40
 965 960 1190 713 1190 410 c 2
 1190 240 l 2
 1190 108 1111 -18 965 -18 c 0xdf40
 863 -18 789 47 770 110 c 1
 755 73 683 -18 555 -18 c 0
 392 -18 280 99 280 262 c 2
 280 358 l 2
 280 521 392 638 555 638 c 0
 658 638 743 577 760 530 c 1
 760 620 l 1
 900 620 l 1xbec0
 900 180 l 2
 900 110 917 82 965 82 c 0
 1013 82 1040 168 1040 240 c 2
 1040 410 l 2
 1040 654 858 830 610 830 c 0
 362 830 180 654 180 410 c 2
 180 210 l 2
 180 -34 375 -210 610 -210 c 2
 860 -210 l 1
 860 -340 l 1
 610 -340 l 2
 251 -340 30 -93 30 210 c 2
 30 410 l 2
 30 713 255 960 610 960 c 0xdf40
590 548 m 0
 493 548 460 471 460 358 c 2
 460 262 l 2
 460 149 493 72 590 72 c 0xbf40
 687 72 720 159 720 262 c 2
 720 358 l 2
 720 461 687 548 590 548 c 0
EndSplineSet
EndChar

StartChar: bracketleft
Encoding: 91 91 183
Width: 440
VWidth: 0
Flags: W
HStem: -340 100<200 380> 950 100<200 380>
VStem: 40 160<-240 950>
LayerCount: 2
Fore
SplineSet
40 1050 m 1
 380 1050 l 1
 380 950 l 1
 200 950 l 1
 200 -240 l 1
 380 -240 l 1
 380 -340 l 1
 40 -340 l 1
 40 1050 l 1
EndSplineSet
EndChar

StartChar: bracketright
Encoding: 93 93 184
Width: 440
VWidth: 0
Flags: W
HStem: -340 100<40 220> 950 100<40 220>
VStem: 220 160<-240 950>
LayerCount: 2
Fore
SplineSet
380 1050 m 1
 380 -340 l 1
 40 -340 l 1
 40 -240 l 1
 220 -240 l 1
 220 950 l 1
 40 950 l 1
 40 1050 l 1
 380 1050 l 1
EndSplineSet
EndChar

StartChar: asciicircum
Encoding: 94 94 185
Width: 540
VWidth: 0
Flags: W
HStem: 840 20G<191.304 328.696>
LayerCount: 2
Fore
SplineSet
200 860 m 1
 320 860 l 1
 520 400 l 1
 380 400 l 1
 260 690 l 1
 140 400 l 1
 0 400 l 1
 200 860 l 1
EndSplineSet
EndChar

StartChar: underscore
Encoding: 95 95 186
Width: 860
VWidth: 0
Flags: W
HStem: -110 110<10 840>
LayerCount: 2
Fore
SplineSet
10 0 m 1
 840 0 l 1
 840 -110 l 1
 10 -110 l 1
 10 0 l 1
EndSplineSet
EndChar

StartChar: grave
Encoding: 96 96 187
Width: 240
VWidth: 0
Flags: W
HStem: 780 180
VStem: -20 260
LayerCount: 2
Fore
SplineSet
-20 960 m 1
 120 960 l 1
 240 780 l 1
 120 780 l 1
 -20 960 l 1
EndSplineSet
EndChar

StartChar: braceleft
Encoding: 123 123 188
Width: 500
VWidth: 0
Flags: W
HStem: -340 100<295.418 460> 950 100<295.418 460>
VStem: 120 160<-224.859 274.455 435.545 934.859>
LayerCount: 2
Fore
SplineSet
300 1050 m 2
 460 1050 l 1
 460 950 l 1
 340 950 l 2
 304 950 280 912 280 880 c 2
 280 500 l 2
 280 383 160 355 160 355 c 1
 160 355 280 327 280 210 c 2
 280 -170 l 2
 280 -202 304 -240 340 -240 c 2
 460 -240 l 1
 460 -340 l 1
 300 -340 l 2
 202 -340 120 -276 120 -190 c 2
 120 210 l 2
 120 277 39 325 0 345 c 1
 0 365 l 1
 39 385 120 433 120 500 c 2
 120 900 l 2
 120 986 202 1050 300 1050 c 2
EndSplineSet
EndChar

StartChar: braceright
Encoding: 125 125 189
Width: 500
VWidth: 0
Flags: W
HStem: -340 100<20 184.582> 950 100<20 184.582>
VStem: 200 160<-224.859 274.455 435.545 934.859>
LayerCount: 2
Fore
SplineSet
180 1050 m 2
 278 1050 360 986 360 900 c 2
 360 500 l 2
 360 433 441 385 480 365 c 1
 480 345 l 1
 441 325 360 277 360 210 c 2
 360 -190 l 2
 360 -276 278 -340 180 -340 c 2
 20 -340 l 1
 20 -240 l 1
 140 -240 l 2
 176 -240 200 -202 200 -170 c 2
 200 210 l 2
 200 327 320 355 320 355 c 1
 320 355 200 383 200 500 c 2
 200 880 l 2
 200 912 176 950 140 950 c 2
 20 950 l 1
 20 1050 l 1
 180 1050 l 2
EndSplineSet
EndChar

StartChar: asciitilde
Encoding: 126 126 190
Width: 640
VWidth: 0
Flags: W
HStem: 240 110<351.801 502.198> 320 110<119.533 280.492>
LayerCount: 2
Fore
SplineSet
60 360 m 1x80
 101 407 143 430 203 430 c 0x40
 309 430 353 350 428 350 c 0x80
 483 350 522 389 560 430 c 1x40
 560 308 l 1
 514 264 470 240 417 240 c 0x80
 321 240 290 320 193 320 c 0x40
 133 320 100 278 60 240 c 0
 60 360 l 1x80
EndSplineSet
EndChar

StartChar: quoteleft
Encoding: 8216 8216 193
Width: 300
VWidth: 0
Flags: W
HStem: 650 350
VStem: 30 200<682.456 817.744>
LayerCount: 2
Fore
SplineSet
130 650 m 0
 74 650 30 694 30 750 c 0
 30 858 102 946 170 1000 c 1
 260 1000 l 1
 227 971 174 901 156 847 c 1
 199 835 230 797 230 750 c 0
 230 694 186 650 130 650 c 0
EndSplineSet
EndChar

StartChar: Euro
Encoding: 8364 8364 196
Width: 640
Flags: W
HStem: -18 110<466.097 580> 310 80<40 130 310 540> 470 80<40 130 310 540> 768 110<466.097 580>
VStem: 130 175<248.854 310 390 470 550 611.146>
LayerCount: 2
Fore
SplineSet
580 878 m 1
 580 768 l 1
 452 768 337 679 310 550 c 1
 540 550 l 1
 540 470 l 1
 305 470 l 1
 305 390 l 1
 540 390 l 1
 540 310 l 1
 310 310 l 1
 337 181 452 92 580 92 c 1
 580 -18 l 1
 377 -18 158 117 133 310 c 1
 40 310 l 1
 40 390 l 1
 130 390 l 1
 130 470 l 1
 40 470 l 1
 40 550 l 1
 133 550 l 1
 158 743 377 878 580 878 c 1
EndSplineSet
EndChar

StartChar: yen
Encoding: 165 165 197
Width: 640
Flags: W
HStem: 0 21G<230 410> 180 80<40 230 410 600> 360 80<40 224 416 600> 840 20G<0 188.75 451.25 640>
VStem: 230 180<0 180 260 360>
LayerCount: 2
Fore
SplineSet
0 860 m 1
 180 860 l 1
 320 540 l 1
 460 860 l 1
 640 860 l 1
 416 440 l 1
 600 440 l 1
 600 360 l 1
 410 360 l 1
 410 260 l 1
 600 260 l 1
 600 180 l 1
 410 180 l 1
 410 0 l 1
 230 0 l 1
 230 180 l 1
 40 180 l 1
 40 260 l 1
 230 260 l 1
 230 360 l 1
 40 360 l 1
 40 440 l 1
 224 440 l 1
 0 860 l 1
EndSplineSet
EndChar

StartChar: sterling
Encoding: 163 163 198
Width: 640
Flags: W
HStem: 0 110<225 620> 370 80<20 110 285 510> 768 110<303.562 402.216>
VStem: 110 170<185.168 370 450 744.725> 420 169<650 749.869>
LayerCount: 2
Fore
SplineSet
285 370 m 1
 285 269 272 179 225 110 c 1
 620 110 l 1
 620 0 l 1
 20 0 l 1
 20 110 l 1
 114 174 112 283 115 370 c 1
 20 370 l 1
 20 450 l 1
 110 450 l 1
 110 620 l 1
 111 779 204 878 350 878 c 0
 496 878 589 767 589 650 c 1
 420 650 l 1
 420 713 410 768 350 768 c 0
 290 768 281 691 280 620 c 1
 280 450 l 1
 510 450 l 1
 510 370 l 1
 285 370 l 1
EndSplineSet
EndChar

StartChar: cent
Encoding: 162 162 199
Width: 640
Flags: W
HStem: -15 107<254.675 280 370 385.989> 528 272<282.081 369.351>
VStem: 50 160<136.202 481.625> 280 90<-180 -10.8826 630.872 800> 420 170<124.978 200 420 490.634>
LayerCount: 2
Fore
SplineSet
280 800 m 1
 370 800 l 1
 370 634 l 1
 485 615 572 526 585 420 c 1
 420 420 l 1
 412 489 379 528 325 528 c 0
 238 528 210 461 210 358 c 2
 210 262 l 2
 210 159 237 92 325 92 c 0
 385 92 407 126 420 200 c 1
 590 200 l 1
 573 85 485 3 370 -15 c 1
 370 -180 l 1
 280 -180 l 1
 280 -15 l 1
 142 5 50 114 50 262 c 2
 50 358 l 2
 50 506 142 615 280 635 c 1
 280 800 l 1
EndSplineSet
EndChar

StartChar: copyright
Encoding: 169 169 200
Width: 980
Flags: W
HStem: -18 90<350.647 609.353> 180 85<423.645 547.062> 600 85<426.484 546.476> 788 90<350.647 609.353>
VStem: 40 100<297.7 562.3> 270 123<299.061 565.939> 570 130<289.501 350 515 575.985> 820 100<297.7 562.3>
LayerCount: 2
Fore
SplineSet
480 878 m 0
 746 878 920 667 920 430 c 0
 920 193 746 -18 480 -18 c 0
 214 -18 40 193 40 430 c 0
 40 667 214 878 480 878 c 0
480 788 m 0
 279 788 140 618 140 430 c 0
 140 242 279 72 480 72 c 0
 681 72 820 242 820 430 c 0
 820 618 681 788 480 788 c 0
490 685 m 0
 595 685 683 607 695 515 c 1
 570 515 l 1
 564 568 532 600 490 600 c 0
 423 600 393 549 393 470 c 2
 393 395 l 2
 393 316 422 265 490 265 c 0
 536 265 560 293 570 350 c 1
 700 350 l 1
 685 251 595 180 490 180 c 0
 365 180 270 270 270 395 c 2
 270 470 l 2
 270 595 365 685 490 685 c 0
EndSplineSet
EndChar

StartChar: registered
Encoding: 174 174 201
Width: 980
Flags: W
HStem: -18 90<350.647 609.353> 400 70<410 538.989> 615 70<410 542.719> 788 90<350.647 609.353>
VStem: 40 100<297.7 562.3> 310 100<190 400 470 615> 560 100<196.924 378.837 488.791 599.594> 820 100<297.7 562.3>
LayerCount: 2
Fore
SplineSet
480 878 m 0
 746 878 920 667 920 430 c 0
 920 193 746 -18 480 -18 c 0
 214 -18 40 193 40 430 c 0
 40 667 214 878 480 878 c 0
480 788 m 0
 279 788 140 618 140 430 c 0
 140 242 279 72 480 72 c 0
 681 72 820 242 820 430 c 0
 820 618 681 788 480 788 c 0
310 685 m 1
 465 685 l 2
 577 685 660 647 660 545 c 0
 660 496 628 452 585 430 c 1
 629 418 660 383 660 300 c 0
 660 204 695 190 695 190 c 1
 587 190 l 1
 587 190 558 197 558 300 c 0
 558 373 533 400 460 400 c 2
 410 400 l 1
 410 190 l 1
 310 190 l 1
 310 685 l 1
410 615 m 1
 410 470 l 1
 475 470 l 2
 525 470 560 498 560 545 c 0
 560 592 532 615 460 615 c 2
 410 615 l 1
EndSplineSet
EndChar

StartChar: acute
Encoding: 180 180 204
Width: 240
VWidth: 0
Flags: W
HStem: 780 180
VStem: -20 260
LayerCount: 2
Fore
SplineSet
240 960 m 1
 100 780 l 1
 -20 780 l 1
 100 960 l 1
 240 960 l 1
EndSplineSet
EndChar

StartChar: exclamdown
Encoding: 161 161 205
Width: 300
VWidth: 0
Flags: W
HStem: 418 200<72.4561 207.544>
VStem: 40 200<450.456 585.544> 50 180<-342 228>
LayerCount: 2
Fore
SplineSet
50 -342 m 1xa0
 50 228 l 1
 95 348 l 1
 185 348 l 1
 230 228 l 1
 230 -342 l 1
 50 -342 l 1xa0
240 518 m 0xc0
 240 462 196 418 140 418 c 0
 84 418 40 462 40 518 c 0
 40 574 84 618 140 618 c 0
 196 618 240 574 240 518 c 0xc0
EndSplineSet
EndChar

StartChar: brokenbar
Encoding: 166 166 206
Width: 280
Flags: W
HStem: 940 20G<50 210>
VStem: 50 160<-340 230 390 960>
LayerCount: 2
Fore
SplineSet
50 -340 m 1
 50 230 l 1
 210 230 l 1
 210 -340 l 1
 50 -340 l 1
210 390 m 1
 50 390 l 1
 50 960 l 1
 210 960 l 1
 210 390 l 1
EndSplineSet
EndChar

StartChar: section
Encoding: 167 167 207
Width: 780
Flags: W
HStem: -340 120<282.109 487.111> 600 21G<525 700> 768 110<285.268 463.951>
VStem: 30 175<-146.533 -52> 50 175<234.647 387.938 554.572 709.079> 525 175<600 706.719> 555 175<-158.448 6.57818 162.821 328.654>
LayerCount: 2
Fore
SplineSet
370 878 m 0xea
 579 878 700 750 700 600 c 1
 525 600 l 1
 525 704 478 768 370 768 c 0
 263 768 225 685 225 630 c 0xec
 225 559 256 524 390 510 c 0
 549 493 730 438 730 250 c 0
 730 180 708 124 670 83 c 1
 707 45 730 -5 730 -72 c 0
 730 -259 574 -340 380 -340 c 0
 186 -340 30 -235 30 -52 c 1
 205 -52 l 1xf2
 205 -163 287 -220 380 -220 c 0
 481 -220 555 -174 555 -72 c 0
 555 15 510 44 350 68 c 0
 221 87 50 139 50 308 c 0
 50 364 76 424 127 471 c 1
 81 507 50 558 50 630 c 0
 50 745 161 878 370 878 c 0xea
266 407 m 1
 237 378 225 339 225 308 c 0
 225 237 256 202 390 188 c 0
 436 183 484 175 529 161 c 1
 545 184 555 213 555 250 c 0xea
 555 337 510 366 350 390 c 0
 323 394 294 399 266 407 c 1
EndSplineSet
EndChar

StartChar: endash
Encoding: 8211 8211 209
Width: 640
VWidth: 0
Flags: W
HStem: 270 110<40 580>
LayerCount: 2
Fore
SplineSet
40 380 m 1
 580 380 l 1
 580 270 l 1
 40 270 l 1
 40 380 l 1
EndSplineSet
EndChar

StartChar: guilsinglleft
Encoding: 8249 8249 210
Width: 360
Flags: W
VStem: 40 290
LayerCount: 2
Fore
SplineSet
170 320 m 1
 330 90 l 1
 220 90 l 1
 40 315 l 1
 40 325 l 1
 220 550 l 1
 330 550 l 1
 170 320 l 1
EndSplineSet
EndChar

StartChar: guilsinglright
Encoding: 8250 8250 211
Width: 360
Flags: W
VStem: 30 290
LayerCount: 2
Fore
SplineSet
190 320 m 1
 30 550 l 1
 140 550 l 1
 320 325 l 1
 320 315 l 1
 140 90 l 1
 30 90 l 1
 190 320 l 1
EndSplineSet
EndChar

StartChar: trademark
Encoding: 8482 8482 213
Width: 700
Flags: W
HStem: 540 320<130 200 310 380 570 640> 810 50<50 130 200 280>
VStem: 130 70<540 810> 310 70<540 780> 570 70<540 780>
LayerCount: 2
Fore
SplineSet
50 860 m 1x78
 280 860 l 1
 280 810 l 1
 200 810 l 1x78
 200 540 l 1
 130 540 l 1xb8
 130 810 l 1
 50 810 l 1
 50 860 l 1x78
310 860 m 1xb8
 410 860 l 1
 475 620 l 1
 540 860 l 1x78
 640 860 l 1
 640 540 l 1
 570 540 l 1
 570 780 l 1
 500 540 l 1
 450 540 l 1
 380 780 l 1
 380 540 l 1
 310 540 l 1
 310 860 l 1xb8
EndSplineSet
EndChar

StartChar: emdash
Encoding: 8212 8212 214
Width: 930
VWidth: 0
Flags: W
HStem: 270 110<40 870>
LayerCount: 2
Fore
SplineSet
40 380 m 1
 870 380 l 1
 870 270 l 1
 40 270 l 1
 40 380 l 1
EndSplineSet
EndChar

StartChar: degree
Encoding: 176 176 219
Width: 330
VWidth: 0
Flags: W
HStem: 670 80<115.017 195.597> 840 80<115.017 195.597>
VStem: 30 80<754.667 835.333> 200 80<754.437 835.563>
LayerCount: 2
Fore
SplineSet
156 920 m 0
 224 920 280 864 280 795 c 0
 280 726 224 670 156 670 c 0
 86 670 30 726 30 795 c 0
 30 864 86 920 156 920 c 0
156 840 m 0
 131 840 110 820 110 795 c 0
 110 770 131 750 156 750 c 0
 180 750 200 770 200 795 c 0
 200 820 180 840 156 840 c 0
EndSplineSet
EndChar

StartChar: uni00B2
Encoding: 178 178 221
Width: 364
Flags: W
HStem: 590 60<144 314> 970 60<127.183 212.073>
VStem: 30 84<890 959.539> 222 85<832.945 963.078>
LayerCount: 2
Fore
SplineSet
170 1030 m 0
 248 1030 307 972 307 894 c 0
 307 838 266 790 246 766 c 1
 144 650 l 1
 314 650 l 1
 314 590 l 1
 34 590 l 1
 34 650 l 1
 144 772 l 1
 166 797 222 852 222 894 c 0
 222 944 204 970 170 970 c 0
 136 970 114 939 114 890 c 1
 30 890 l 1
 30 967 91 1030 170 1030 c 0
EndSplineSet
EndChar

StartChar: uni00B3
Encoding: 179 179 222
Width: 370
Flags: W
HStem: 590 55<126.575 223.425> 786 56<110 222.007> 983 55<130.622 219.378>
VStem: 30 85<656.788 715 913 970.957> 235 85<655.621 774.507 851.82 971.084>
CounterMasks: 1 e0
LayerCount: 2
Fore
SplineSet
175 1038 m 0
 249 1038 315 985 315 913 c 0
 315 862 278 826 248 814 c 1
 278 802 320 766 320 715 c 0
 320 643 258 590 175 590 c 0
 92 590 30 643 30 715 c 1
 115 715 l 1
 115 670 138 645 175 645 c 0
 212 645 235 670 235 715 c 0
 235 754 213 786 175 786 c 2
 110 786 l 1
 110 842 l 1
 175 842 l 2
 214 842 230 864 230 913 c 0
 230 958 209 983 175 983 c 0
 141 983 120 958 120 913 c 1
 35 913 l 1
 35 985 101 1038 175 1038 c 0
EndSplineSet
EndChar

StartChar: uni00B9
Encoding: 185 185 227
Width: 284
Flags: W
HStem: 875 55<30 104.81>
VStem: 147 87<590 922 972.688 1020>
LayerCount: 2
Fore
SplineSet
140 1020 m 1
 234 1020 l 1
 234 590 l 1
 147 590 l 1
 147 922 l 1
 118 881 84 875 30 875 c 1
 30 930 l 1
 88 930 140 973 140 1020 c 1
EndSplineSet
EndChar

StartChar: ordmasculine
Encoding: 186 186 228
Width: 370
VWidth: 0
Flags: W
HStem: 540 55<125.074 224.926> 813 55<125.074 224.926>
VStem: 30 80<608.447 799.553> 240 80<608.447 799.553>
LayerCount: 2
Fore
SplineSet
175 868 m 0
 256 868 320 810 320 728 c 0
 320 702 320 706 320 680 c 0
 320 598 256 540 175 540 c 0
 94 540 30 598 30 680 c 0
 30 706 30 702 30 728 c 0
 30 810 94 868 175 868 c 0
175 813 m 0
 132 813 110 780 110 723 c 0
 110 697 110 711 110 685 c 0
 110 628 132 595 175 595 c 0
 218 595 240 628 240 685 c 0
 240 711 240 697 240 723 c 0
 240 780 218 813 175 813 c 0
EndSplineSet
EndChar

StartChar: dagger
Encoding: 8224 8224 231
Width: 580
VWidth: 0
Flags: W
HStem: 530 90<40 229 350 540> 840 20G<229 350>
VStem: 229 121<-340 530 620 860>
LayerCount: 2
Fore
SplineSet
350 860 m 1
 350 620 l 1
 540 620 l 1
 540 530 l 1
 350 530 l 1
 350 -340 l 1
 229 -340 l 1
 229 530 l 1
 40 530 l 1
 40 620 l 1
 229 620 l 1
 229 860 l 1
 350 860 l 1
EndSplineSet
EndChar

StartChar: bullet
Encoding: 8226 8226 232
Width: 360
VWidth: 0
Flags: W
HStem: 200 250<97.4187 252.581>
VStem: 50 250<247.419 402.581>
LayerCount: 2
Fore
SplineSet
300 325 m 0
 300 255 245 200 175 200 c 0
 105 200 50 255 50 325 c 0
 50 395 105 450 175 450 c 0
 245 450 300 395 300 325 c 0
EndSplineSet
EndChar

StartChar: uni2010
Encoding: 8208 8208 233
Width: 640
VWidth: 0
Flags: W
HStem: 270 110<40 580>
LayerCount: 2
Fore
SplineSet
40 270 m 1
 40 380 l 1
 580 380 l 1
 580 270 l 1
 40 270 l 1
EndSplineSet
EndChar

StartChar: uni2011
Encoding: 8209 8209 234
Width: 640
VWidth: 0
Flags: W
HStem: 270 110<40 580>
LayerCount: 2
Fore
SplineSet
40 270 m 1
 40 380 l 1
 580 380 l 1
 580 270 l 1
 40 270 l 1
EndSplineSet
EndChar

StartChar: perthousand
Encoding: 8240 8240 235
Width: 1440
VWidth: 0
Flags: W
HStem: 0 105<656.17 783.83 1116.17 1243.83> 295 105<656.17 783.83 1116.17 1243.83> 460 105<176.17 303.83> 755 105<176.17 303.83>
VStem: 40 105<596.17 723.83> 335 105<596.17 723.83> 520 105<136.17 263.83> 815 105<136.17 263.83> 980 105<136.17 263.83> 1275 105<136.17 263.83>
LayerCount: 2
Fore
SplineSet
1180 400 m 0
 1290 400 1380 310 1380 200 c 0
 1380 90 1290 0 1180 0 c 0
 1070 0 980 90 980 200 c 0
 980 310 1070 400 1180 400 c 0
1180 295 m 0
 1128 295 1085 252 1085 200 c 0
 1085 148 1128 105 1180 105 c 0
 1232 105 1275 148 1275 200 c 0
 1275 252 1232 295 1180 295 c 0
EndSplineSet
Refer: 161 37 N 1 0 0 1 0 0 2
EndChar

